<?xml version="1.0" encoding="UTF-8"?>
<svg width="30px" height="41px" viewBox="0 0 30 41" version="1.1" xmlns="http://www.w3.org/2000/svg" xmlns:xlink="http://www.w3.org/1999/xlink">
    <!-- Generator: Sketch 52.2 (67145) - http://www.bohemiancoding.com/sketch -->
    <title>automotriz_logo</title>
    <desc>Created with Sketch.</desc>
    <g id="Mobile" stroke="none" stroke-width="1" fill="none" fill-rule="evenodd">
        <g id="Landing_Purdy_Eje-Abierto" transform="translate(-316.000000, -642.000000)" fill-rule="nonzero">
            <g id="logos" transform="translate(22.000000, 642.000000)">
                <g id="automotriz_logo" transform="translate(294.000000, 0.000000)">
                    <path d="M2.09674769,27.9187817 L2.97200828,27.9187817 L5.07614213,32.9949239 L4.19349537,32.9949239 L3.80479842,32.0277852 L1.24272232,32.0277852 L0.854948638,32.9949239 L0,32.9949239 L2.09674769,27.9187817 Z M3.50196564,31.2690355 L2.52052892,28.9081842 L1.53816893,31.2690355 L3.50196564,31.2690355 Z" id="Shape" fill="#002E5E"></path>
                    <path d="M8.63036661,31.0493335 L8.63036661,27.9187817 L9.4859828,27.9187817 L9.4859828,30.9410495 C9.4859828,31.7289696 9.72648032,32.2334145 10.9150931,32.2334145 C12.1037058,32.2334145 12.3654781,31.7492178 12.3654781,30.9410495 L12.3654781,27.9187817 L13.1979695,27.9187817 L13.1979695,31.0493335 C13.1979695,32.0177269 12.9361972,32.9949239 10.9067682,32.9949239 C8.87733907,32.9949239 8.62944162,32.0186072 8.62944162,31.0493335" id="Path" fill="#002E5E"></path>
                    <polygon id="Path" fill="#002E5E" points="18.6111044 28.7133005 16.751269 28.7133005 16.751269 27.9187817 21.319797 27.9187817 21.319797 28.7133005 19.4608724 28.7133005 19.4608724 32.9949239 18.6111044 32.9949239"></polygon>
                    <path d="M23.857868,30.1992277 C23.857868,28.2138921 24.9163955,27.4111675 26.6459282,27.4111675 C28.375461,27.4111675 29.4416244,28.2138921 29.4416244,30.1992277 C29.4416244,32.1845633 28.3764155,32.9949239 26.6459282,32.9949239 C24.915441,32.9949239 23.857868,32.1921992 23.857868,30.1992277 M28.5510868,30.2135451 C28.5510868,28.9803462 28.004165,28.26448 26.6421103,28.26448 C25.2800555,28.26448 24.7445876,28.9793917 24.7445876,30.2135451 C24.7445876,31.4476984 25.2924639,32.1692915 26.6421103,32.1692915 C27.9917567,32.1692915 28.5510868,31.4543798 28.5510868,30.2135451" id="Shape" fill="#002E5E"></path>
                    <polygon id="Path" fill="#002E5E" points="0 35.0253807 1.88869274 35.0253807 3.0461339 38.0462011 4.20985575 35.0253807 6.09137056 35.0253807 6.09137056 40.1015228 4.6835991 40.1015228 4.6835991 37.1556498 3.52705519 40.1015228 2.44677677 40.1015228 1.30279423 37.1759297 1.30279423 40.1015228 0 40.1015228"></polygon>
                    <path d="M6.59898477,37.8135 C6.59898477,35.7329823 7.75966326,35.0253807 9.38729163,35.0253807 C11.01492,35.0253807 12.1827411,35.733922 12.1827411,37.8135 C12.1827411,39.8930781 11.0175985,40.6091371 9.38729163,40.6091371 C7.75698477,40.6091371 6.59898477,39.9015355 6.59898477,37.8135 M10.7256432,37.8426311 C10.7256432,37.0034701 10.4577943,36.4114528 9.3863988,36.4114528 C8.31500327,36.4114528 8.04715439,37.0025304 8.04715439,37.8426311 C8.04715439,38.6827317 8.31500327,39.2803872 9.3863988,39.2803872 C10.4577943,39.2803872 10.7256432,38.681792 10.7256432,37.8426311" id="Shape" fill="#002E5E"></path>
                    <polygon id="Path" fill="#002E5E" points="13.9665785 36.3065401 12.1827411 36.3065401 12.1827411 35.0253807 17.2588832 35.0253807 17.2588832 36.3065401 15.4750459 36.3065401 15.4750459 40.1015228 13.9665785 40.1015228"></polygon>
                    <path d="M19.7459929,38.5805318 L18.7543877,38.5805318 L18.7543877,40.1015228 L17.2588832,40.1015228 L17.2588832,35.0253807 L20.0412835,35.0253807 C22.0025852,35.0253807 22.3350254,35.8189412 22.3350254,36.7720956 C22.3350254,37.4025353 22.1645188,38.0735348 21.2767417,38.3953677 L22.2759672,40.1006411 L20.63377,40.1006411 L19.7459929,38.5805318 Z M19.9898458,37.4025353 C20.5823323,37.4025353 20.7890358,37.2932003 20.7890358,36.8276448 C20.7890358,36.3409277 20.5985256,36.2315927 19.9822254,36.2315927 L18.7534351,36.2315927 L18.7534351,37.4025353 L19.9898458,37.4025353 Z" id="Shape" fill="#002E5E"></path>
                    <rect id="Rectangle" fill="#002E5E" x="22.8426396" y="35.0253807" width="1.52284264" height="5.07614213"></rect>
                    <polygon id="Path" fill="#002E5E" points="24.8730964 39.0531412 27.5180337 36.3065401 24.99197 36.3065401 24.99197 35.0253807 29.3641764 35.0253807 29.3641764 36.1830973 26.7687699 38.875031 29.4416244 38.875031 29.4416244 40.1015228 24.8730964 40.1015228"></polygon>
                    <polygon id="Path" fill="#0088C4" points="8.00832361 20.7749375 14.7100553 9.21154632 17.6348182 14.257944 20.3045685 9.65217083 14.7100553 0 7.3554913 12.6903553 0 25.3807107 11.1880992 25.3807107 13.8578495 20.7749375"></polygon>
                    <polygon id="Path" fill="#002E5E" points="20.812648 25.3807107 12.1827411 25.3807107 16.4972293 18.0207627 20.812648 10.6598985 25.1271362 18.0207627 29.4416244 25.3807107"></polygon>
                    <rect id="Rectangle" fill="#0088C4" x="0" y="33.5025381" width="29.4416244" height="1"></rect>
                </g>
            </g>
        </g>
    </g>
</svg>