<?xml version="1.0" encoding="UTF-8"?>
<svg width="46px" height="32px" viewBox="0 0 46 32" version="1.1" xmlns="http://www.w3.org/2000/svg" xmlns:xlink="http://www.w3.org/1999/xlink">
    <!-- Generator: Sketch 55.1 (78136) - https://sketchapp.com -->
    <title>Group 35</title>
    <desc>Created with Sketch.</desc>
    <defs>
        <polygon id="path-1" points="5.45994065e-05 0.124841202 45.7146362 0.124841202 45.7146362 23.3062318 5.45994065e-05 23.3062318"></polygon>
        <polygon id="path-3" points="0.0618065282 0.11720515 3.8828368 0.11720515 3.8828368 7.13756567 0.0618065282 7.13756567"></polygon>
    </defs>
    <g id="Symbols" stroke="none" stroke-width="1" fill="none" fill-rule="evenodd">
        <g id="1.Atomo/Gente-Purdy/-Triada" transform="translate(-124.000000, -162.000000)">
            <g id="Group-7">
                <g id="Group-35" transform="translate(124.000000, 162.000000)">
                    <g id="Group-3" transform="translate(0.000000, 0.012498)">
                        <mask id="mask-2" fill="white">
                            <use xlink:href="#path-1"></use>
                        </mask>
                        <g id="Clip-2"></g>
                        <path d="M42.8420249,23.2686009 C42.8420249,23.2686009 42.8420249,23.3062318 42.8420249,23.2686009 C42.8420249,23.3062318 42.8420249,23.3062318 42.8786065,23.3062318 L45.7146362,23.3062318 L45.7146362,17.3317082 L30.4763513,17.3317082 C30.4400427,17.3317082 30.3032712,17.3317082 30.2028083,17.2282918 C30.0660368,17.1246009 29.9657104,16.9172189 29.9657104,16.6344378 L29.9657104,8.43612017 C29.9657104,8.37019742 30.002292,8.33256652 30.0295917,8.25703004 C30.0660368,8.21939914 30.1299181,8.19124464 30.2028083,8.19124464 L31.3154077,8.19124464 C31.3154077,8.19124464 31.3518528,8.12518455 31.3518528,8.01215451 L31.3518528,4.48775966 C31.3518528,4.48775966 31.3518528,4.45012876 31.2150813,4.45012876 L24.1294433,4.45012876 L24.0929982,4.45012876 C24.0291169,4.45012876 23.9562267,4.45012876 23.8923454,4.48775966 C23.8284641,4.52539056 23.8284641,4.52539056 23.8284641,4.5536824 L23.427295,8.50204292 C23.427295,8.60573391 23.3269685,8.70942489 23.1900605,8.70942489 C23.053289,8.70942489 22.9895442,8.60573391 22.9530991,8.50204292 L22.55193,4.59145064 C22.55193,4.59145064 22.55193,4.5536824 22.5153484,4.5536824 C22.4787668,4.5160515 22.415022,4.45012876 22.2143691,4.45012876 L16.2048855,4.45012876 L16.1045591,4.45012876 C15.9313424,4.48775966 15.6668083,4.30866953 15.6303632,3.960103 C15.6303632,3.960103 15.4935917,2.9800515 15.1195858,2.00947639 C14.7184166,1.02942489 14.0710042,0.124772532 13.0587312,0.124772532 L4.43188843,0.124772532 L4.43188843,0.190695279 L4.43188843,3.79048927 L4.46847003,3.79048927 L5.10673709,3.79048927 C5.2436451,3.79048927 5.34383501,3.89418026 5.34383501,4.03550215 L5.34383501,14.825133 C5.34383501,15.0042232 5.27995371,15.136206 5.1706184,15.239897 C5.07029199,15.343588 4.96996558,15.343588 4.89707537,15.343588 C4.89707537,15.343588 4.86049377,15.343588 4.89707537,15.343588 L4.43188843,15.343588 L4.36814362,15.343588 L4.36814362,17.0209099 C4.36814362,17.0868326 4.33156202,17.1622318 4.30426231,17.1998627 C4.26768071,17.2376309 4.2040724,17.2659227 4.1309092,17.2659227 L0.173271217,17.2659227 C0.109526409,17.2659227 0.0729448071,17.2659227 0.0364997033,17.3035536 C5.45994065e-05,17.3413219 5.45994065e-05,17.3694764 5.45994065e-05,17.3413219 L5.45994065e-05,23.2026781 L3.0731822,23.2026781 L3.0731822,22.6465923 C3.0731822,22.0906438 3.58395964,22.0528755 3.61125935,22.0152446 L3.64756795,22.0152446 L11.9278409,22.0152446 C12.2015205,22.0152446 12.3657282,22.1943348 12.4386184,22.3639485 C12.5023632,22.5052704 12.5023632,22.6465923 12.5023632,22.6465923 L12.5023632,23.2026781 L20.709746,23.2026781 L20.709746,19.8196052 L20.3723217,19.7818369 C20.3084404,19.7818369 19.9983157,19.640515 19.9983157,19.2919485 L19.9983157,19.1506266 L19.9983157,15.6262318 C19.9983157,15.4847725 20.0987786,15.3812189 20.199105,15.3812189 L20.2355501,15.3812189 C20.3358766,15.3812189 20.436203,15.4471416 20.4726481,15.560309 L22.0958884,23.3062318 L23.7189923,23.3062318 L25.3057875,15.560309 C25.3423691,15.456618 25.4425591,15.352927 25.543022,15.3812189 C25.6797935,15.3812189 25.7435383,15.4847725 25.7435383,15.6262318 L25.7435383,19.3577339 C25.7435383,19.6688069 25.4425591,19.8855279 25.3057875,19.847897 L25.2693424,19.847897 L24.9957994,19.847897 L24.9957994,23.3062318 L33.0662742,23.3062318 L33.0662742,22.6465923 C33.0662742,22.608824 33.0298291,22.5806695 33.0298291,22.5052704 C33.0298291,22.4017167 33.0662742,22.2602575 33.1666006,22.1565665 C33.266927,22.0528755 33.4401436,21.9776137 33.6043513,21.9776137 L42.5867727,21.9776137 C42.650654,21.9776137 42.7235442,22.0152446 42.7599893,22.0435365 C42.7964344,22.0811674 42.8238706,22.1472275 42.8238706,22.2226266 L42.8420249,23.2686009 Z M9.70291513,7.24882403 L9.70291513,3.40401717 C9.70291513,3.33809442 9.73922374,3.26269528 9.76665994,3.22506438 C9.80310504,3.18729614 9.86698635,3.15914163 9.93987656,3.15914163 L10.7150516,3.15914163 C10.7150516,3.15914163 11.326019,3.22506438 11.326019,3.89418026 L11.326019,6.96618026 L11.326019,7.032103 C11.326019,7.06987124 11.1528024,7.41843777 10.7150516,7.41843777 L9.93987656,7.41843777 C9.87613175,7.41843777 9.80310504,7.38066953 9.76665994,7.35237768 C9.73922374,7.35237768 9.70291513,7.31488412 9.70291513,7.24882403 L9.70291513,7.24882403 Z M16.6243454,19.0469356 C16.6243454,19.4332704 16.2869211,19.5745923 16.2230398,19.5745923 L15.8491703,19.5745923 C15.785289,19.5745923 15.7123988,19.536824 15.6759537,19.5086695 C15.6395086,19.4710386 15.6120724,19.4049785 15.6120724,19.3295794 L15.6120724,17.3694764 L12.2379656,17.3694764 L11.3626006,17.3694764 C10.9887312,17.3317082 10.9248499,16.9831416 10.9248499,16.9548498 L10.9248499,15.4189871 L10.9248499,15.3812189 L10.8882682,15.3812189 L10.8519596,15.3812189 L10.2774374,15.3812189 C10.1406659,15.3812189 9.97645816,15.3152961 9.93987656,15.2022661 C9.87613175,15.0985751 9.87613175,14.9948841 9.87613175,14.919485 L9.87613175,14.815794 L9.87613175,11.0465236 C9.87613175,10.9052017 9.91257685,10.7637425 9.97645816,10.6978197 C10.0767846,10.5941288 10.1769745,10.5941288 10.2500012,10.5941288 L10.313746,10.5941288 L12.9857045,10.5941288 C13.4964819,10.5941288 13.9615323,10.1795021 14.2989567,9.68947639 C14.6362445,9.19958798 14.8095976,8.70942489 14.8095976,8.70942489 C14.9828142,8.39848927 15.2837935,8.36072103 15.2837935,8.32309013 L15.3476748,8.32309013 L16.432838,8.32309013 C16.4965828,8.32309013 16.5331644,8.36072103 16.6060546,8.38901288 C16.6426362,8.42678112 16.6699359,8.49270386 16.6699359,8.568103 L16.6699359,19.0374592 L16.6243454,19.0374592 L16.6243454,19.0469356 Z" id="Fill-1" fill="#FEFEFE" mask="url(#mask-2)"></path>
                    </g>
                    <path d="M0.10945816,31.7337545 L0.10945816,24.713394 L1.79644332,24.713394 C3.24633056,24.713394 3.89401602,25.2694798 3.89401602,26.7770506 C3.89401602,28.2848961 3.21903086,28.8408446 1.79644332,28.8408446 L1.28580237,28.8408446 L1.28580237,31.7337545 L0.10945816,31.7337545 Z M1.29494777,27.8607931 L1.73269852,27.8607931 C2.50773709,27.8607931 2.74497151,27.6157803 2.74497151,26.7770506 C2.74497151,25.9384584 2.50773709,25.6934455 1.73269852,25.6934455 L1.29494777,25.6934455 L1.29494777,27.8607931 Z" id="Fill-4" fill="#FEFEFE"></path>
                    <path d="M4.63256855,24.7133803 L5.78161306,24.7133803 L5.78161306,30.018788 C5.78161306,30.546582 5.98226588,30.7914575 6.39258042,30.7914575 C6.83033116,30.7914575 7.00354777,30.546582 7.00354777,30.018788 L7.00354777,24.7133803 L8.18903739,24.7133803 L8.18903739,29.9527279 C8.18903739,31.1777923 7.51418872,31.8374318 6.40172582,31.8374318 C5.28926291,31.8374318 4.61427774,31.1777923 4.61427774,29.9527279 L4.61427774,24.7133803 L4.63256855,24.7133803 Z" id="Fill-6" fill="#FEFEFE"></path>
                    <path d="M10.3137869,31.7337545 L9.12829733,31.7337545 L9.12829733,24.713394 L10.7515377,24.713394 C12.0646534,24.713394 12.7486475,25.2694798 12.7486475,26.7770506 C12.7486475,27.898424 12.3473418,28.3508189 11.9371638,28.5582009 L12.9128552,31.7337545 L11.7272291,31.7337545 L10.8793003,28.8408446 C10.7425288,28.8784755 10.4779947,28.8784755 10.2681964,28.8784755 L10.2681964,31.7432309 L10.3137869,31.7432309 L10.3137869,31.7337545 Z M10.3137869,27.8607931 L10.7149561,27.8607931 C11.3533596,27.8607931 11.5905941,27.6157803 11.5905941,26.7770506 C11.5905941,25.9384584 11.3533596,25.6934455 10.7149561,25.6934455 L10.3137869,25.6934455 L10.3137869,27.8607931 Z" id="Fill-8" fill="#FEFEFE"></path>
                    <path d="M13.651476,24.7133803 L15.3750427,24.7133803 C16.587832,24.7133803 17.235381,25.410788 17.235381,26.843097 L17.235381,29.6323159 C17.235381,31.0647622 16.5969774,31.7620326 15.3750427,31.7620326 L13.651476,31.7620326 L13.651476,24.7133803 Z M14.8369656,30.7536893 L15.2382712,30.7536893 C15.8492386,30.7536893 16.0863365,30.5086764 16.0863365,29.7737751 L16.0863365,26.7017751 C16.0863365,25.9667365 15.8492386,25.7217236 15.2382712,25.7217236 L14.8369656,25.7217236 L14.8369656,30.7536893 Z" id="Fill-10" fill="#FEFEFE"></path>
                    <polygon id="Fill-12" fill="#FEFEFE" points="20.2811134 31.7337545 19.1320688 31.7337545 19.1320688 28.8030764 17.7094813 24.6851021 18.8951074 24.6851021 19.7065911 27.3707674 19.7431727 27.3707674 20.5182113 24.6851021 21.7037009 24.6851021 20.2811134 28.8030764"></polygon>
                    <polygon id="Fill-14" fill="#FEFEFE" points="28.7620119 24.7133803 28.7620119 31.7337408 27.7497389 31.7337408 27.7497389 26.2495176 27.7132938 26.2495176 26.6645757 31.7337408 26.0900534 31.7337408 25.0413353 26.2495176 25.0048902 26.2495176 25.0048902 31.7337408 23.9927537 31.7337408 23.9927537 24.7133803 25.5155312 24.7133803 26.3637329 28.8313545 27.2117982 24.7133803"></polygon>
                    <path d="M29.6373905,26.4284979 C29.6373905,25.4484464 30.2119128,24.6097167 31.4248386,24.6097167 C32.6376279,24.6097167 33.2121501,25.4108155 33.2121501,26.4284979 L33.2121501,30.0564464 C33.2121501,31.0364979 32.6376279,31.8750901 31.4248386,31.8750901 C30.2119128,31.8750901 29.6373905,31.0741288 29.6373905,30.0564464 L29.6373905,26.4284979 Z M30.786435,30.0188155 C30.786435,30.5464721 30.9597881,30.791485 31.3975389,30.791485 C31.8715982,30.791485 32.0085062,30.5464721 32.0085062,30.0188155 L32.0085062,26.4566524 C32.0085062,25.9289957 31.8715982,25.6839828 31.3975389,25.6839828 C30.923343,25.6839828 30.786435,25.9289957 30.786435,26.4566524 L30.786435,30.0188155 Z" id="Fill-16" fill="#FEFEFE"></path>
                    <polygon id="Fill-18" fill="#FEFEFE" points="34.8080772 25.759382 33.6956142 25.759382 33.6956142 24.7134077 37.1061662 24.7134077 37.1061662 25.759382 35.9844214 25.759382 35.9844214 31.7337682 34.7989318 31.7337682"></polygon>
                    <path d="M37.6076344,26.4284979 C37.6076344,25.4484464 38.1821567,24.6097167 39.3950825,24.6097167 C40.6078718,24.6097167 41.1823941,25.4108155 41.1823941,26.4284979 L41.1823941,30.0564464 C41.1823941,31.0364979 40.6078718,31.8750901 39.3950825,31.8750901 C38.1821567,31.8750901 37.6076344,31.0741288 37.6076344,30.0564464 L37.6076344,26.4284979 Z M38.7932605,30.0188155 C38.7932605,30.5464721 38.930032,30.791485 39.4040914,30.791485 C39.8784237,30.791485 40.0151953,30.5464721 40.0151953,30.0188155 L40.0151953,26.4566524 C40.0151953,25.9289957 39.8784237,25.6839828 39.4040914,25.6839828 C38.930032,25.6839828 38.7932605,25.9289957 38.7932605,26.4566524 L38.7932605,30.0188155 Z" id="Fill-20" fill="#FEFEFE"></path>
                    <g id="Group-24" transform="translate(42.041543, 24.596189)">
                        <mask id="mask-4" fill="white">
                            <use xlink:href="#path-3"></use>
                        </mask>
                        <g id="Clip-23"></g>
                        <path d="M1.24743264,7.13756567 L0.0618065282,7.13756567 L0.0618065282,0.11720515 L1.72162849,0.11720515 C3.03474421,0.11720515 3.71860178,0.673290987 3.71860178,2.1808618 C3.71860178,3.30223519 3.28085104,3.75463004 2.9071181,3.96201202 L3.88294599,7.13756567 L2.69731988,7.13756567 L1.8492546,4.24465579 C1.67603798,4.2822867 1.44808546,4.2822867 1.23828724,4.2822867 L1.23828724,7.13756567 L1.24743264,7.13756567 Z M1.24743264,3.26460429 L1.64860178,3.26460429 C2.28700534,3.26460429 2.52410326,3.01959142 2.52410326,2.1808618 C2.52410326,1.34226953 2.28700534,1.09725665 1.64860178,1.09725665 L1.24743264,1.09725665 L1.24743264,3.26460429 Z" id="Fill-22" fill="#FEFEFE" mask="url(#mask-4)"></path>
                    </g>
                    <path d="M32.1999454,13.3299227 L33.4857614,13.3299227 L33.4857614,16.1194163 L33.111892,16.1194163 L32.9751205,15.7046524 C32.7378861,16.0533562 32.5373697,16.1946781 32.1635003,16.1946781 C31.5252332,16.1946781 31.1147822,15.6670215 31.1147822,14.7623691 L31.1147822,11.935382 C31.1147822,11.1344206 31.4886516,10.5029356 32.2638267,10.5029356 C33.0388653,10.5029356 33.4493163,11.2003433 33.4493163,12.0013047 L33.4493163,12.3498712 L32.7015774,12.3498712 C32.7015774,11.511279 32.5648059,11.303897 32.2638267,11.303897 C32.0631739,11.303897 31.9264024,11.4452189 31.9264024,11.8976137 L31.9264024,14.7623691 C31.9264024,15.111073 32.0265923,15.3560858 32.3002718,15.3560858 C32.6376961,15.3560858 32.7378861,15.1487039 32.7378861,14.583279 L32.7378861,14.055485 L32.2272451,14.055485 L32.2272451,13.3299227 L32.1999454,13.3299227 Z" id="Fill-25" fill="#FEFEFE"></path>
                    <path d="M34.8354042,16.1287416 L34.0602291,16.1287416 L34.0602291,10.578321 L35.1728285,10.578321 C36.04833,10.578321 36.5223893,11.0307159 36.5223893,12.218012 C36.5223893,13.1226644 36.2488463,13.4712309 35.9844487,13.6126901 L36.6591608,16.1287416 L35.8476772,16.1287416 L35.2731549,13.8199348 C35.1728285,13.8199348 34.9994754,13.857703 34.8719858,13.857703 L34.8719858,16.1287416 L34.8354042,16.1287416 Z M34.8354042,13.0850335 L35.1089472,13.0850335 C35.5466979,13.0850335 35.6834694,12.9059433 35.6834694,12.2461665 C35.6834694,11.5866644 35.5102528,11.4075742 35.1089472,11.4075742 L34.8354042,11.4075742 L34.8354042,13.0850335 Z" id="Fill-27" fill="#FEFEFE"></path>
                    <path d="M36.9967217,10.578321 L37.7718967,10.578321 L37.7718967,14.7716944 C37.7718967,15.1864584 37.9086682,15.3654112 38.1730659,15.3654112 C38.4739086,15.3654112 38.6106801,15.1581665 38.6106801,14.7716944 L38.6106801,10.578321 L39.3858552,10.578321 L39.3858552,14.7340635 C39.3858552,15.6763468 38.9116593,16.2041408 38.1730659,16.2041408 C37.4343359,16.2041408 36.9601401,15.6763468 36.9601401,14.7340635 L36.9601401,10.578321 L36.9967217,10.578321 Z" id="Fill-29" fill="#FEFEFE"></path>
                    <path d="M39.9422368,16.1287416 L39.9422368,10.578321 L41.0911448,10.578321 C42.0668362,10.578321 42.5138688,11.0307159 42.5138688,12.218012 C42.5138688,13.4054455 42.0761181,13.857703 41.0911448,13.857703 L40.7537205,13.857703 L40.7537205,16.1287416 L39.9422368,16.1287416 Z M40.7537205,13.0850335 L41.0546997,13.0850335 C41.5654772,13.0850335 41.7295484,12.9059433 41.7295484,12.2461665 C41.7295484,11.5866644 41.5561953,11.4075742 41.0546997,11.4075742 L40.7537205,11.4075742 L40.7537205,13.0850335 Z" id="Fill-31" fill="#FEFEFE"></path>
                    <path d="M42.9150789,11.9353408 C42.9150789,11.1343794 43.2889484,10.5028944 44.1278682,10.5028944 C44.9667881,10.5028944 45.3407941,11.1343794 45.3407941,11.9353408 L45.3407941,14.7999588 C45.3407941,15.5727657 44.9667881,16.2324052 44.1278682,16.2324052 C43.2889484,16.2324052 42.9150789,15.6009202 42.9150789,14.7999588 L42.9150789,11.9353408 Z M43.690254,14.7623279 C43.690254,15.1770918 43.7904439,15.3938129 44.0914231,15.3938129 C44.3922659,15.3938129 44.4927288,15.1864309 44.4927288,14.7623279 L44.4927288,11.9729717 C44.4927288,11.5583451 44.3922659,11.3417614 44.0914231,11.3417614 C43.7904439,11.3417614 43.690254,11.549006 43.690254,11.9729717 L43.690254,14.7623279 Z" id="Fill-33" fill="#FEFEFE"></path>
                </g>
            </g>
        </g>
    </g>
</svg>