<?xml version="1.0" encoding="UTF-8"?>
<svg width="46px" height="32px" viewBox="0 0 46 32" version="1.1" xmlns="http://www.w3.org/2000/svg" xmlns:xlink="http://www.w3.org/1999/xlink">
    <!-- Generator: Sketch 55.1 (78136) - https://sketchapp.com -->
    <title>purdy</title>
    <desc>Created with Sketch.</desc>
    <g id="Symbols" stroke="none" stroke-width="1" fill="none" fill-rule="evenodd">
        <g id="footer-desktop-toyota" transform="translate(-227.000000, -158.000000)" fill="#231F20">
            <g id="logos" transform="translate(170.000000, 158.000000)">
                <g id="purdy" transform="translate(57.302817, 0.727273)">
                    <g id="Capa_1">
                        <g id="Group">
                            <g id="Shape">
                                <path d="M42.5481495,22.791044 C42.5481495,22.791044 42.5481495,22.8281629 42.5481495,22.791044 C42.5481495,22.8281629 42.5481495,22.8281629 42.5843453,22.8281629 L45.3985678,22.8281629 L45.3985678,16.9448071 L30.2777772,16.9448071 C30.2415814,16.9448071 30.1058472,16.9448071 30.0063087,16.84273 C29.8705745,16.7406528 29.7710361,16.5364985 29.7710361,16.2581063 L29.7710361,8.18473159 C29.7710361,8.1197734 29.8072319,8.08265444 29.8343787,8.00841651 C29.8705745,7.97129755 29.9339172,7.94345832 30.0063087,7.94345832 L31.1102803,7.94345832 C31.1102803,7.94345832 31.1464761,7.87850013 31.1464761,7.76714324 L31.1464761,4.2965201 C31.1464761,4.2965201 31.1464761,4.25940113 31.0107419,4.25940113 L23.9797099,4.25940113 C23.9797099,4.25940113 23.9797099,4.25940113 23.9435142,4.25940113 C23.8801715,4.25940113 23.8077799,4.25940113 23.7444373,4.2965201 C23.6810947,4.33363906 23.6810947,4.33363906 23.6810947,4.36147828 L23.282941,8.24968978 C23.282941,8.35176693 23.1834026,8.45384408 23.0476684,8.45384408 C22.9119342,8.45384408 22.8485915,8.35176693 22.8123958,8.24968978 L22.4142421,4.39859725 C22.4142421,4.39859725 22.4142421,4.36147828 22.3780463,4.36147828 C22.3418505,4.32435932 22.2785079,4.25940113 22.079431,4.25940113 L16.1161749,4.25940113 L16.0166365,4.25940113 C15.8447065,4.2965201 15.582287,4.12020502 15.5460912,3.7768546 C15.5460912,3.7768546 15.410357,2.81176153 15.0393502,1.85594821 C14.6411965,0.890855139 13.9987212,0 12.9942881,0 L4.4339841,0 L4.4339841,0 C4.4339841,0 4.4339841,0 4.4339841,0.0649581872 L4.4339841,3.60981926 L4.47017989,3.60981926 L5.10360619,3.60981926 L5.10360619,3.60981926 C5.2393404,3.60981926 5.33887882,3.71189641 5.33887882,3.85109253 L5.33887882,14.476396 C5.33887882,14.6527111 5.27553619,14.7826275 5.16694882,14.8847046 C5.0674104,14.9867818 4.96787198,14.9867818 4.89548041,14.9867818 C4.89548041,14.9867818 4.85928462,14.9867818 4.89548041,14.9867818 L4.4339841,14.9867818 L4.37064147,14.9867818 L4.37064147,16.6385757 C4.37064147,16.7035339 4.33444568,16.7777718 4.30729884,16.8148907 C4.27110305,16.8520097 4.20776042,16.8798489 4.13536885,16.8798489 L0.208125784,16.8798489 C0.144783154,16.8798489 0.108587366,16.8798489 0.0723915772,16.9169679 C0.0361957886,16.9540869 0.0361957886,16.9819261 0.0361957886,16.9540869 L0.0361957886,22.7260858 L3.08569098,22.7260858 L3.08569098,22.1785811 C3.08569098,21.6310763 3.59243202,21.5939574 3.61957886,21.5568384 L3.65577465,21.5568384 L11.8722187,21.5568384 C12.1436871,21.5568384 12.3065681,21.7331535 12.3789597,21.9001888 C12.4423023,22.0393849 12.4423023,22.1785811 12.4423023,22.1785811 L12.4423023,22.7260858 L20.5863548,22.7260858 L20.5863548,19.3946588 L20.2515437,19.3575398 C20.1882011,19.3575398 19.8805369,19.2183437 19.8805369,18.8749933 L19.8805369,18.7357971 L19.8805369,15.265174 C19.8805369,15.1259779 19.9800753,15.0239007 20.0796137,15.0239007 L20.1158095,15.0239007 C20.2153479,15.0239007 20.3148863,15.0888589 20.3510821,15.2002158 L21.9617947,22.8281629 L23.5725073,22.8281629 L25.1470241,15.2002158 C25.1832199,15.0981387 25.2827583,14.9960615 25.3822968,15.0239007 C25.518031,15.0239007 25.5813736,15.1259779 25.5813736,15.265174 L25.5813736,18.9399514 C25.5813736,19.2461829 25.2827583,19.4596169 25.1470241,19.422498 L25.1108283,19.422498 L24.8393599,19.422498 L24.8393599,22.8281629 L32.8476781,22.8281629 L32.8476781,22.1785811 C32.8476781,22.1414621 32.8114824,22.1136229 32.8114824,22.0393849 C32.8114824,21.9373078 32.8476781,21.7981117 32.9472166,21.6960345 C33.046755,21.5939574 33.218685,21.5197194 33.381566,21.5197194 L42.294779,21.5197194 C42.3581216,21.5197194 42.4305132,21.5568384 42.466709,21.5846776 C42.5029048,21.6217966 42.5300516,21.6867548 42.5300516,21.7609927 L42.5481495,22.791044 L42.5481495,22.791044 Z M9.66427555,7.01548422 L9.66427555,3.22934988 C9.66427555,3.16439169 9.70047134,3.09015376 9.72761818,3.0530348 C9.76381397,3.01591583 9.8271566,2.98807661 9.89954818,2.98807661 L10.6687087,2.98807661 C10.6687087,2.98807661 11.2749881,3.0530348 11.2749881,3.71189641 L11.2749881,6.73709199 L11.2749881,6.80205018 C11.2749881,6.83916914 11.1030582,7.18251956 10.6687087,7.18251956 L9.89954818,7.18251956 C9.83620555,7.18251956 9.76381397,7.14540059 9.72761818,7.11756137 C9.70047134,7.11756137 9.66427555,7.08044241 9.66427555,7.01548422 Z M16.5324264,18.63372 C16.5324264,19.0141894 16.1976154,19.1533855 16.1342728,19.1533855 L15.7632659,19.1533855 C15.6999233,19.1533855 15.6275317,19.1162665 15.5913359,19.0884273 C15.5551401,19.0513083 15.5279933,18.9863501 15.5279933,18.9121122 L15.5279933,16.9819261 L12.1798829,16.9819261 L12.1798829,16.9819261 L12.1798829,16.9819261 L11.3111839,16.9819261 C10.9401771,16.9448071 10.8768345,16.6014567 10.8768345,16.5736175 L10.8768345,15.0610197 L10.8768345,15.0239007 C10.8768345,15.0239007 10.8768345,15.0239007 10.8406387,15.0239007 L10.8406387,15.0239007 L10.8044429,15.0239007 L10.2343592,15.0239007 C10.098625,15.0239007 9.93574397,14.9589425 9.89954818,14.8475856 C9.83620555,14.7455085 9.83620555,14.6434313 9.83620555,14.5691934 L9.83620555,14.4671163 L9.83620555,14.4671163 L9.83620555,10.7552199 C9.83620555,10.6160237 9.87240134,10.4768276 9.93574397,10.4118694 C10.0352824,10.3097923 10.1348208,10.3097923 10.2072124,10.3097923 L10.270555,10.3097923 L12.9218965,10.3097923 C13.4286376,10.3097923 13.8901339,9.90148368 14.2249449,9.41893715 C14.559756,8.93639061 14.731686,8.45384408 14.731686,8.45384408 C14.903616,8.14761262 15.2022312,8.11049366 15.2022312,8.0733747 L15.2655738,8.0733747 L16.3423985,8.0733747 C16.4057412,8.0733747 16.441937,8.11049366 16.5143285,8.13833288 C16.5505243,8.17545185 16.5776712,8.24041004 16.5776712,8.31464796 L16.5776712,18.6244402 L16.5324264,18.6244402 L16.5324264,18.63372 Z"></path>
                                <g transform="translate(0.090489, 24.034529)">
                                    <path d="M0.0542936829,7.08044241 L0.0542936829,0.167035339 L1.72834891,0.167035339 C3.1671315,0.167035339 3.80960675,0.714540059 3.80960675,2.19929862 C3.80960675,3.68405719 3.13998466,4.23156191 1.72834891,4.23156191 L1.22160787,4.23156191 L1.22160787,7.08044241 L0.0542936829,7.08044241 L0.0542936829,7.08044241 Z M1.23065681,3.26646884 L1.66500628,3.26646884 C2.43416678,3.26646884 2.66943941,3.02519558 2.66943941,2.19929862 C2.66943941,1.37340167 2.43416678,1.13212841 1.66500628,1.13212841 L1.23065681,1.13212841 L1.23065681,3.26646884 L1.23065681,3.26646884 Z"></path>
                                    <path d="M4.54257147,0.167035339 L5.68273881,0.167035339 L5.68273881,5.39152954 C5.68273881,5.91119504 5.88181565,6.1524683 6.28901827,6.1524683 C6.72336773,6.1524683 6.89529773,5.91119504 6.89529773,5.39152954 L6.89529773,0.167035339 L8.07166086,0.167035339 L8.07166086,5.32657135 C8.07166086,6.53293769 7.40203877,7.18251956 6.29806722,7.18251956 C5.19409566,7.18251956 4.52447357,6.53293769 4.52447357,5.32657135 L4.52447357,0.167035339 L4.54257147,0.167035339 Z"></path>
                                    <path d="M10.1800655,7.08044241 L9.00370241,7.08044241 L9.00370241,0.167035339 L10.614415,0.167035339 C11.9174634,0.167035339 12.5961344,0.714540059 12.5961344,2.19929862 C12.5961344,3.30358781 12.1979808,3.74901538 11.7907781,3.95316968 L12.7590155,7.08044241 L11.5826523,7.08044241 L10.7411003,4.23156191 C10.6053661,4.26868087 10.3429466,4.26868087 10.1348208,4.26868087 L10.1348208,7.08972215 L10.1800655,7.08972215 L10.1800655,7.08044241 Z M10.1800655,3.26646884 L10.5782192,3.26646884 C11.2116455,3.26646884 11.4469181,3.02519558 11.4469181,2.19929862 C11.4469181,1.37340167 11.2116455,1.13212841 10.5782192,1.13212841 L10.1800655,1.13212841 L10.1800655,3.26646884 Z"></path>
                                    <path d="M13.4919802,0.167035339 L15.2022312,0.167035339 C16.4057412,0.167035339 17.0482164,0.853736175 17.0482164,2.26425681 L17.0482164,5.01106016 C17.0482164,6.42158079 16.4147901,7.10828163 15.2022312,7.10828163 L13.4919802,7.10828163 L13.4919802,0.167035339 Z M14.6683433,6.11534934 L15.066497,6.11534934 C15.6727765,6.11534934 15.9080491,5.87407607 15.9080491,5.15025627 L15.9080491,2.1250607 C15.9080491,1.4012409 15.6727765,1.15996763 15.066497,1.15996763 L14.6683433,1.15996763 L14.6683433,6.11534934 Z"></path>
                                    <polygon points="20.0705648 7.08044241 18.9303974 7.08044241 18.9303974 4.19444295 17.5187617 0.139196115 18.6951248 0.139196115 19.5004811 2.78392231 19.5366769 2.78392231 20.3058374 0.139196115 21.4822005 0.139196115 20.0705648 4.19444295"></polygon>
                                    <polygon points="28.4860856 0.167035339 28.4860856 7.08044241 27.4816525 7.08044241 27.4816525 1.67963313 27.4454567 1.67963313 26.4048278 7.08044241 25.8347441 7.08044241 24.7941152 1.67963313 24.7579194 1.67963313 24.7579194 7.08044241 23.7534863 7.08044241 23.7534863 0.167035339 25.2646604 0.167035339 26.1062125 4.22228217 26.1062125 4.22228217 26.9477646 0.167035339"></polygon>
                                    <path d="M29.3547845,1.85594821 C29.3547845,0.890855139 29.9248682,0.0649581872 31.1283782,0.0649581872 C32.3318882,0.0649581872 32.9019718,0.853736175 32.9019718,1.85594821 L32.9019718,5.4286485 C32.9019718,6.39374157 32.3318882,7.21963852 31.1283782,7.21963852 C29.9248682,7.21963852 29.3547845,6.43086053 29.3547845,5.4286485 L29.3547845,1.85594821 Z M30.4949519,5.39152954 C30.4949519,5.91119504 30.6668819,6.1524683 31.1012313,6.1524683 C31.5717766,6.1524683 31.7075108,5.91119504 31.7075108,5.39152954 L31.7075108,1.88378743 C31.7075108,1.36412193 31.5717766,1.12284866 31.1012313,1.12284866 C30.6306861,1.12284866 30.4949519,1.36412193 30.4949519,1.88378743 L30.4949519,5.39152954 Z"></path>
                                    <polygon points="34.4855376 1.19708659 33.381566 1.19708659 33.381566 0.167035339 36.7658723 0.167035339 36.7658723 1.19708659 35.6528518 1.19708659 35.6528518 7.08044241 34.4764886 7.08044241"></polygon>
                                    <path d="M37.2635644,1.85594821 C37.2635644,0.890855139 37.833648,0.0649581872 39.037158,0.0649581872 C40.240668,0.0649581872 40.8107516,0.853736175 40.8107516,1.85594821 L40.8107516,5.4286485 C40.8107516,6.39374157 40.240668,7.21963852 39.037158,7.21963852 C37.833648,7.21963852 37.2635644,6.43086053 37.2635644,5.4286485 L37.2635644,1.85594821 Z M38.4399275,5.39152954 C38.4399275,5.91119504 38.5756617,6.1524683 39.0462069,6.1524683 C39.5167522,6.1524683 39.6524864,5.91119504 39.6524864,5.39152954 L39.6524864,1.88378743 C39.6524864,1.36412193 39.5167522,1.12284866 39.0462069,1.12284866 C38.5756617,1.12284866 38.4399275,1.36412193 38.4399275,1.88378743 L38.4399275,5.39152954 Z"></path>
                                    <path d="M42.9010584,7.08044241 L41.7246953,7.08044241 L41.7246953,0.167035339 L43.3716037,0.167035339 C44.6746521,0.167035339 45.3533231,0.714540059 45.3533231,2.19929862 C45.3533231,3.30358781 44.9189736,3.74901538 44.5479668,3.95316968 L45.5162042,7.08044241 L44.339841,7.08044241 L43.4982889,4.23156191 C43.3263589,4.26868087 43.1001353,4.26868087 42.8920095,4.26868087 L42.8920095,7.08044241 L42.9010584,7.08044241 Z M42.9010584,3.26646884 L43.2992121,3.26646884 C43.9326384,3.26646884 44.167911,3.02519558 44.167911,2.19929862 C44.167911,1.37340167 43.9326384,1.13212841 43.2992121,1.13212841 L42.9010584,1.13212841 L42.9010584,3.26646884 Z"></path>
                                </g>
                            </g>
                            <g transform="translate(30.856910, 10.207715)" id="Shape">
                                <path d="M1.13111839,2.78392231 L2.40701994,2.78392231 L2.40701994,5.53072565 L2.03601311,5.53072565 L1.9002789,5.12241705 C1.66500628,5.46576747 1.46592944,5.60496358 1.0949226,5.60496358 C0.461496305,5.60496358 0.0542936829,5.08529808 0.0542936829,4.19444295 L0.0542936829,1.41052064 C0.0542936829,0.621742649 0.425300516,0 1.19446102,0 C1.96362153,0 2.37082415,0.686700836 2.37082415,1.47547882 L2.37082415,1.81882924 L1.62881049,1.81882924 C1.62881049,0.99293229 1.49307628,0.788777988 1.19446102,0.788777988 C0.995384186,0.788777988 0.859649979,0.927974103 0.859649979,1.37340167 L0.859649979,4.19444295 C0.859649979,4.53779336 0.959188398,4.77906663 1.23065681,4.77906663 C1.56546786,4.77906663 1.66500628,4.57491233 1.66500628,4.01812787 L1.66500628,3.49846237 L1.15826523,3.49846237 L1.15826523,2.78392231 L1.13111839,2.78392231 Z"></path>
                                <path d="M3.74626412,5.5400054 L2.97710361,5.5400054 L2.97710361,0.0742379282 L4.08107516,0.0742379282 C4.94977409,0.0742379282 5.42031934,0.519665498 5.42031934,1.68891287 C5.42031934,2.57976801 5.14885093,2.92311842 4.88643146,3.06231454 L5.55605355,5.5400054 L4.75069725,5.5400054 L4.18061358,3.26646884 C4.08107516,3.26646884 3.90914517,3.30358781 3.78245991,3.30358781 L3.78245991,5.5400054 L3.74626412,5.5400054 Z M3.74626412,2.54264904 L4.01773253,2.54264904 C4.452082,2.54264904 4.5878162,2.36633396 4.5878162,1.71675209 C4.5878162,1.06717022 4.41588621,0.890855139 4.01773253,0.890855139 L3.74626412,0.890855139 L3.74626412,2.54264904 Z"></path>
                                <path d="M5.89086459,0.0742379282 L6.6600251,0.0742379282 L6.6600251,4.20372269 C6.6600251,4.61203129 6.79575931,4.78834637 7.05817878,4.78834637 C7.35679403,4.78834637 7.49252824,4.58419207 7.49252824,4.20372269 L7.49252824,0.0742379282 L8.26168875,0.0742379282 L8.26168875,4.16660372 C8.26168875,5.09457783 7.79114349,5.61424332 7.05817878,5.61424332 C6.32521406,5.61424332 5.8546688,5.09457783 5.8546688,4.16660372 L5.8546688,0.0742379282 L5.89086459,0.0742379282 L5.89086459,0.0742379282 Z"></path>
                                <path d="M8.81367452,5.5400054 L8.81367452,0.0742379282 L9.95384186,0.0742379282 C10.9220792,0.0742379282 11.3654776,0.519665498 11.3654776,1.68891287 C11.3654776,2.85816024 10.9311282,3.30358781 9.95384186,3.30358781 L9.61903082,3.30358781 L9.61903082,5.5400054 L8.81367452,5.5400054 Z M9.61903082,2.54264904 L9.91764607,2.54264904 C10.4243871,2.54264904 10.5872682,2.36633396 10.5872682,1.71675209 C10.5872682,1.06717022 10.4153382,0.890855139 9.91764607,0.890855139 L9.61903082,0.890855139 L9.61903082,2.54264904 Z"></path>
                                <path d="M11.7636313,1.41052064 C11.7636313,0.621742649 12.1346381,0 12.9671413,0 C13.7996444,0 14.1706512,0.621742649 14.1706512,1.41052064 L14.1706512,4.23156191 C14.1706512,4.99250067 13.7996444,5.64208255 12.9671413,5.64208255 C12.1346381,5.64208255 11.7636313,5.0203399 11.7636313,4.23156191 L11.7636313,1.41052064 Z M12.5327918,4.19444295 C12.5327918,4.60275155 12.6323302,4.81618559 12.9309455,4.81618559 C13.2295607,4.81618559 13.3290991,4.61203129 13.3290991,4.19444295 L13.3290991,1.4476396 C13.3290991,1.039331 13.2295607,0.825896952 12.9309455,0.825896952 C12.6323302,0.825896952 12.5327918,1.03005125 12.5327918,1.4476396 L12.5327918,4.19444295 Z"></path>
                            </g>
                        </g>
                    </g>
                </g>
            </g>
        </g>
    </g>
</svg>