<?xml version="1.0" encoding="UTF-8"?>
<svg width="55px" height="41px" viewBox="0 0 55 41" version="1.1" xmlns="http://www.w3.org/2000/svg" xmlns:xlink="http://www.w3.org/1999/xlink">
    <!-- Generator: Sketch 52.2 (67145) - http://www.bohemiancoding.com/sketch -->
    <title>Purdy_logo</title>
    <desc>Created with Sketch.</desc>
    <g id="Mobile" stroke="none" stroke-width="1" fill="none" fill-rule="evenodd">
        <g id="Landing_Purdy_Eje-Abierto" transform="translate(-22.000000, -642.000000)" fill="#1A1919">
            <g id="logos" transform="translate(22.000000, 642.000000)">
                <g id="Purdy_logo">
                    <path d="M24.1553902,24.801714 L24.1553902,10.9806851 C24.1553902,10.8923878 24.1203378,10.8165641 24.0606905,10.7500711 C24.0042387,10.6958552 23.9310353,10.6571576 23.848633,10.6571576 L22.4096433,10.6571576 L22.3333413,10.6741492 C22.307294,10.6958552 21.9136803,10.7500711 21.6832251,11.1633692 C21.6785772,11.1911646 21.4405692,11.8304605 20.9918593,12.4697564 C20.5463447,13.11524 19.9160787,13.6894178 19.2217112,13.6770424 L15.6676651,13.6770424 C15.6370668,13.6739977 15.6036605,13.6708548 15.566962,13.6708548 C15.4769101,13.6708548 15.3227569,13.6987485 15.2052053,13.8210289 C15.0908492,13.9417379 15.04195,14.113618 15.0480503,14.2962038 L15.0480503,19.2433069 L15.037399,19.2633432 C15.0312987,19.2989961 15.0312987,19.350069 15.0312987,19.4103744 C15.0312987,19.5080023 15.032848,19.6333275 15.1305494,19.7773139 C15.2097563,19.9289613 15.4112594,20.026491 15.5943648,20.0187319 L16.3558355,20.0187319 L16.4231323,20.0094994 C16.4366885,20.0094994 16.4413363,20.0141157 16.448889,20.0249196 C16.448889,20.0249196 16.4519876,20.0342502 16.4519876,20.0559562 L16.4519876,21.9953534 C16.4535369,22.0650876 16.5435887,22.5402625 17.0578525,22.5665848 L18.2496354,22.5758172 L18.2664838,22.5758172 L18.2710348,22.5758172 L22.7910564,22.5758172 L22.7910564,25.15618 C22.7910564,25.2367181 22.8231071,25.3187295 22.8887578,25.3790348 C22.9406586,25.4301078 23.0215116,25.4703768 23.1040107,25.4703768 L23.6121743,25.4703768 C23.7036786,25.4703768 24.1507424,25.3093988 24.1553902,24.801714 Z M14.8679466,9.31050131 C14.8679466,9.39408416 14.9030959,9.47766702 14.9625495,9.53649913 C15.0159996,9.59375977 15.095497,9.62312672 15.1839027,9.62312672 L16.2138828,9.62312672 C16.8045454,9.62312672 17.007501,9.14490708 17.0135044,9.10463802 L17.0273511,8.99630442 L17.0273511,4.95633554 C17.0273511,4.09104184 16.2475796,3.98113677 16.2277295,3.98113677 L15.1839027,3.97652056 C15.095497,3.97652056 15.0159996,4.00588751 14.9625495,4.06157667 C14.9030959,4.12512321 14.8679466,4.20556312 14.8679466,4.28914597 L14.8679466,9.31050131 Z M42.7102336,22.5526379 L54.3147208,22.5526379 L54.3147208,30.4003902 L50.5028166,30.4003902 L50.4401676,30.3988187 L50.4370691,30.3694517 L50.4401676,30.3353704 L50.4401676,29.0072771 C50.4401676,28.9236943 50.4064708,28.8432544 50.35457,28.7844223 C50.2921147,28.7271616 50.2082599,28.6992679 50.1304087,28.6992679 L46.8671429,28.6992679 C46.6274888,28.6915088 46.4123327,28.7673325 46.2734785,28.9128904 C46.1407247,29.0599216 46.1087708,29.2410341 46.1087708,29.3586983 C46.1087708,29.4267629 46.1163235,29.4949256 46.1315258,29.5382394 L46.1315258,30.4050064 L35.3333415,30.4050064 L35.3333415,25.8774872 L35.6767973,25.8774872 C35.6569472,25.8774872 35.6767973,25.880532 35.7043939,25.880532 C35.8874025,25.8960503 36.2750127,25.6622933 36.2780144,25.225816 L36.2780144,20.3267411 C36.2780144,20.1611468 36.1560087,20.026491 35.9972076,20.0094994 C35.8431512,19.9955526 35.6981968,20.1008415 35.666146,20.2555336 L33.5510897,30.4344715 L31.3703826,30.4344715 L29.2202738,20.2555336 C29.1896756,20.1085024 29.0645713,20.0094994 28.91952,20.0094994 L28.8829183,20.0094994 C28.7304112,20.026491 28.6128596,20.1611468 28.6128596,20.3267411 L28.6128596,25.0710256 L28.6312573,25.2367181 C28.5992066,25.7025623 29.0478197,25.8774872 29.1195707,25.8774872 L29.5727348,25.9378908 L29.5727348,30.4003902 L18.5654947,30.4003902 L18.5654947,29.6543322 C18.5654947,29.6372424 18.5654947,29.4778358 18.4785414,29.2797317 C18.4145368,29.0846723 18.1611329,28.8277361 17.8162246,28.8370667 L6.72667903,28.8370667 L6.69772688,28.8324505 C6.62742834,28.8370667 5.96210983,28.9236943 5.96210983,29.6372424 L5.96210983,30.3694517 L5.95610637,30.3694517 L5.95610637,30.3880148 L7.10542736e-15,30.3880148 L7.10542736e-15,22.549495 L5.95610637,22.549495 L5.95610637,22.5526379 L7.33554568,22.5526379 C7.41639868,22.5526379 7.50044707,22.5247442 7.55525281,22.4674836 C7.61335078,22.4024638 7.64840322,22.3204524 7.64840322,22.2414858 L7.64840322,20.0187319 C7.65905451,20.0094994 7.68355248,20.0063565 7.73380722,20.0063565 L8.34267388,20.0063565 L8.35497128,20.0063565 L8.37327214,20.0063565 C8.46477643,20.0063565 8.61137696,19.9893649 8.74877864,19.8593253 C8.87843393,19.7324287 8.95773765,19.5280386 8.96073938,19.2989961 L8.96073938,5.14825199 C8.96073938,4.96871091 8.82333769,4.83552836 8.65252968,4.83552836 L8.65252968,4.83091215 L7.79190519,4.83091215 L7.74000434,4.83091215 L7.74000434,0.109905068 C7.74000434,-1.59872116e-14 7.76130692,0.00933063584 7.76130692,0.00157147551 L7.76130692,-1.59872116e-14 L19.2767106,0.00157147551 C20.6256485,-0.00314295102 21.4985704,1.17477616 22.0478866,2.47507393 C22.5866484,3.7582819 22.7468051,5.04915081 22.7468051,5.04915081 C22.8125526,5.49034256 23.1711139,5.71476891 23.38627,5.68687522 C23.4503714,5.68687522 23.4991737,5.67921427 23.5358723,5.67145511 L31.5900898,5.67145511 C31.8524989,5.67145511 31.9441969,5.74413586 32.0006487,5.79520881 C32.0174003,5.81072713 32.0281484,5.83862082 32.0372504,5.84942472 L32.6293655,10.9992482 C32.6462139,11.1586547 32.7773216,11.276319 32.9375752,11.276319 C33.0886299,11.276319 33.218382,11.15561 33.2382322,10.994632 L33.790647,5.8076824 C33.7998458,5.75660944 33.795198,5.75660944 33.8867991,5.71476891 C33.9706538,5.68225901 34.0913039,5.66674069 34.1675091,5.67145511 L34.2133096,5.67145511 L43.7037088,5.67145511 C43.8547635,5.6776428 43.8638655,5.71476891 43.8638655,5.71476891 L43.8608638,10.3460055 C43.8608638,10.5023673 43.8302655,10.5596279 43.8211635,10.5797624 L42.3515755,10.5766195 C42.263073,10.5766195 42.1837692,10.6122723 42.1304159,10.669533 C42.072318,10.7283651 42.0388148,10.8073317 42.0388148,10.8877716 L42.0388148,21.6408875 C42.034167,21.9969249 42.1608205,22.2663347 42.3348239,22.4102229 C42.5026302,22.5464502 42.6675316,22.5526379 42.7102336,22.5526379 Z M1.3873019,35.9923384 L1.9189951,35.9923384 C2.82561381,35.9923384 3.10235378,35.7077049 3.10235378,34.733783 C3.10235378,33.7588789 2.82561381,33.4718882 1.9189951,33.4718882 L1.3873019,33.4718882 L1.3873019,35.9923384 Z M1.93659878e-05,40.496089 L1.93659878e-05,32.3205859 L1.98658239,32.3205859 C3.690402,32.3205859 4.4863441,32.9866951 4.4863441,34.733783 C4.4863441,36.4764511 3.690402,37.1413817 1.98658239,37.1413817 L1.3873019,37.1413817 L1.3873019,40.496089 L1.93659878e-05,40.496089 Z M5.35601251,32.3205564 L6.73709793,32.3205564 L6.73709793,38.4885978 C6.73709793,39.0900801 6.97055491,39.3897408 7.47736281,39.3897408 C7.9789419,39.3897408 8.21356084,39.0900801 8.21356084,38.4885978 L8.21356084,32.3205564 L9.59968141,32.3205564 L9.59968141,38.4333015 C9.59968141,39.8369238 8.79241021,40.6091076 7.47736281,40.6091076 C6.15698976,40.6091076 5.35601251,39.8369238 5.35601251,38.4333015 L5.35601251,32.3205564 Z M12.0947662,35.9923384 L12.5845321,35.9923384 C13.3343831,35.9923384 13.6127692,35.7077049 13.6127692,34.733783 C13.6127692,33.7588789 13.3343831,33.4718882 12.5845321,33.4718882 L12.0947662,33.4718882 L12.0947662,35.9923384 Z M12.0947662,40.496089 L10.7074837,40.496089 L10.7074837,32.3205859 L12.6493113,32.3205859 C14.2041096,32.3205859 14.9967595,32.9866951 14.9967595,34.733783 C14.9967595,36.0441971 14.4977948,36.5800703 14.0252647,36.7956571 L15.2033946,40.496089 L13.7928729,40.496089 L12.804917,37.1102468 C12.6321724,37.1332297 12.3412953,37.1413817 12.0947662,37.1413817 L12.0947662,40.496089 Z M17.449733,39.340259 L17.9303,39.340259 C18.6642709,39.340259 18.9267769,39.0556255 18.9267769,38.1970105 L18.9267769,34.617484 C18.9267769,33.7588691 18.6642709,33.4718783 17.9303,33.4718783 L17.449733,33.4718783 L17.449733,39.340259 Z M16.0618695,32.3205761 L18.1199898,32.3205761 C19.5528793,32.3205761 20.3072813,33.1146623 20.3072813,34.7879891 L20.3072813,38.0275858 C20.3072813,39.7032698 19.5528793,40.4961774 18.1199898,40.4961774 L16.0618695,40.4961774 L16.0618695,32.3205761 Z M23.9203162,40.4961381 L22.5353576,40.4961381 L22.5353576,37.0986081 L20.8617489,32.3205368 L22.2666545,32.3205368 L23.2385366,35.4356924 L23.2612916,35.4356924 L24.1901812,32.3205368 L25.5978949,32.3205368 L23.9203162,37.0986081 L23.9203162,40.4961381 Z M33.9552579,32.3205564 L33.9552579,40.4961578 L32.7485632,40.4961578 L32.7485632,34.109092 L32.7258081,34.109092 L31.4703111,40.4961578 L30.8067356,40.4961578 L29.5557896,34.109092 L29.5274184,34.109092 L29.5274184,40.4961578 L28.3213047,40.4961578 L28.3213047,32.3205564 L30.1432568,32.3205564 L31.1272427,37.0986277 L31.1465118,37.0986277 L32.1349518,32.3205564 L33.9552579,32.3205564 Z M36.382155,38.4804753 C36.382155,39.0901095 36.5650668,39.3897703 37.1218389,39.3897703 C37.6767713,39.3897703 37.8558099,39.0901095 37.8558099,38.4804753 L37.8558099,34.3350211 C37.8558099,33.7265654 37.6767713,33.4269047 37.1218389,33.4269047 C36.5650668,33.4269047 36.382155,33.7265654 36.382155,34.3350211 L36.382155,38.4804753 Z M34.9988425,34.3028058 C34.9988425,33.1457088 35.6691962,32.2076361 37.1218389,32.2076361 C38.5669289,32.2076361 39.2357333,33.1457088 39.2357333,34.3028058 L39.2357333,38.5151459 C39.2357333,39.672243 38.5669289,40.6091371 37.1218389,40.6091371 C35.6691962,40.6091371 34.9988425,39.672243 34.9988425,38.5151459 L34.9988425,34.3028058 Z M41.1547187,33.5456395 L39.8169163,33.5456395 L39.8169163,32.3205761 L43.8753495,32.3205761 L43.8753495,33.5456395 L42.5369661,33.5456395 L42.5369661,40.4961774 L41.1547187,40.4961774 L41.1547187,33.5456395 Z M45.8556961,38.4804753 C45.8556961,39.0901095 46.0312488,39.3897703 46.59538,39.3897703 C47.147117,39.3897703 47.327027,39.0901095 47.327027,38.4804753 L47.327027,34.3350211 C47.327027,33.7265654 47.147117,33.4257261 46.59538,33.4257261 C46.0312488,33.4257261 45.8556961,33.7265654 45.8556961,34.3350211 L45.8556961,38.4804753 Z M44.4661865,34.3028058 C44.4661865,33.1457088 45.1405102,32.2076361 46.59538,32.2076361 C48.0468608,32.2076361 48.7154715,33.1457088 48.7154715,34.3028058 L48.7154715,38.5151459 C48.7154715,39.672243 48.0468608,40.6091371 46.59538,40.6091371 C45.1405102,40.6091371 44.4661865,39.672243 44.4661865,38.5151459 L44.4661865,34.3028058 Z M51.2083873,35.9923384 L51.6986373,35.9923384 C52.4479074,35.9923384 52.7263903,35.7077049 52.7263903,34.733783 C52.7263903,33.7577003 52.4479074,33.4718882 51.6986373,33.4718882 L51.2083873,33.4718882 L51.2083873,35.9923384 Z M51.2083873,40.496089 L49.8227509,40.496089 L49.8227509,32.3205859 L51.7684517,32.3205859 C53.3183117,32.3205859 54.1176428,32.9866951 54.1176428,34.733783 C54.1176428,36.0441971 53.6091888,36.5800703 53.142178,36.7956571 L54.3146918,40.496089 L52.9109481,40.496089 L51.9264781,37.1102468 C51.7433727,37.1332297 51.4543354,37.1413817 51.2083873,37.1413817 L51.2083873,40.496089 Z" id="Combined-Shape"></path>
                </g>
            </g>
        </g>
    </g>
</svg>