<?xml version="1.0" encoding="UTF-8"?>
<svg width="21px" height="20px" viewBox="0 0 21 20" version="1.1" xmlns="http://www.w3.org/2000/svg" xmlns:xlink="http://www.w3.org/1999/xlink">
    <!-- Generator: Sketch 55.1 (78136) - https://sketchapp.com -->
    <title>Shape 2</title>
    <desc>Created with Sketch.</desc>
    <g id="Mobile" stroke="none" stroke-width="1" fill="none" fill-rule="evenodd">
        <g id="Landing_Purdy-Copy-3" transform="translate(-32.000000, -3170.000000)" fill="#FFFFFF" fill-rule="nonzero">
            <g id="Shape-2" transform="translate(32.000000, 3170.000000)">
                <path d="M10.0282136,6.35 C8.85664194,5.74931501 7.43249166,5.96253525 6.48821361,6.88 C5.31840009,8.05127019 5.31840009,9.94872981 6.48821361,11.12 L9.31821361,14 C9.50598021,14.1893127 9.76157607,14.2957983 10.0282136,14.2957983 C10.2948511,14.2957983 10.550447,14.1893127 10.7382136,14 L13.5682136,11.17 C14.7380271,9.99872981 14.7380271,8.10127019 13.5682136,6.93 C12.6356399,5.99567664 11.2101866,5.76212779 10.0282136,6.35 Z M12.1482136,9.71 L10.0282136,11.83 L7.90821361,9.71 C7.71890096,9.5222334 7.61241528,9.26663754 7.61241528,9 C7.61241528,8.73336246 7.71890096,8.4777666 7.90821361,8.29 C8.29825106,7.90227641 8.92817615,7.90227641 9.31821361,8.29 C9.50598021,8.47931265 9.76157607,8.58579832 10.0282136,8.58579832 C10.2948511,8.58579832 10.550447,8.47931265 10.7382136,8.29 C11.1282511,7.90227641 11.7581762,7.90227641 12.1482136,8.29 C12.3375263,8.4777666 12.4440119,8.73336246 12.4440119,9 C12.4440119,9.26663754 12.3375263,9.5222334 12.1482136,9.71 L12.1482136,9.71 Z M10.0282136,-1.31450406e-13 C4.50536611,-1.31450406e-13 0.0282136069,4.4771525 0.0282136069,10 C0.0194714355,12.3091344 0.819005809,14.5485381 2.28821361,16.33 L0.288213607,18.33 C0.00446904471,18.6175607 -0.0783831232,19.0476029 0.0782136069,19.42 C0.248081909,19.7879877 0.623269821,20.0170498 1.02821361,20 L10.0282136,20 C15.551061,20 20.0282135,15.5228474 20.0282135,10 C20.0282135,4.47715256 15.551061,-1.31450406e-13 10.0282136,-1.31450406e-13 Z M10.0282136,18 L3.43821361,18 L4.36821361,17.07 C4.7559372,16.6799625 4.7559372,16.0500375 4.36821361,15.66 C1.66809693,12.9628832 1.24909779,8.73406011 3.36744069,5.55952194 C5.48578358,2.38498377 9.55153708,1.1487988 13.0784296,2.60691339 C16.6053222,4.06502798 18.6111593,7.81137584 17.8693403,11.5550069 C17.1275213,15.298638 13.8446334,17.996999 10.0282136,18 L10.0282136,18 Z" id="Shape"></path>
            </g>
        </g>
    </g>
</svg>