<?xml version="1.0" encoding="UTF-8"?>
<svg width="19px" height="18px" viewBox="0 0 19 18" version="1.1" xmlns="http://www.w3.org/2000/svg" xmlns:xlink="http://www.w3.org/1999/xlink">
    <!-- Generator: Sketch 55.1 (78136) - https://sketchapp.com -->
    <title>Shape</title>
    <desc>Created with Sketch.</desc>
    <g id="Symbols" stroke="none" stroke-width="1" fill="none" fill-rule="evenodd">
        <g id="1.atom/icon/Phone" transform="translate(-3.000000, -3.000000)" fill="#364059">
            <path d="M18.795502,12.8642893 C18.5964544,12.8642893 18.3883592,12.8012893 18.1893116,12.7562893 C17.786225,12.6679316 17.3901076,12.5506242 17.0040735,12.4052893 C16.1348237,12.0907224 15.1670212,12.4789114 14.7602639,13.3052893 L14.5612163,13.7102893 C13.6799803,13.2226496 12.8702009,12.6169974 12.1545496,11.9102893 C11.4441023,11.1984046 10.8352456,10.3928872 10.3450258,9.51628926 L10.7250258,9.26428926 C11.5557761,8.85967285 11.946019,7.89696403 11.6297877,7.03228926 C11.4861314,6.64746919 11.3682544,6.25360725 11.2769306,5.85328926 C11.2316925,5.65528926 11.195502,5.44828926 11.1683592,5.24128926 C10.9413706,3.9315845 9.78998991,2.98096826 8.45407346,3.00028926 L5.73978774,3.00028926 C4.95077964,2.99291993 4.19760068,3.32744687 3.67641528,3.91674297 C3.15522987,4.50603908 2.91763139,5.29176856 3.02550203,6.06928926 C4.01705947,13.8257244 10.171138,19.9251793 17.9721687,20.8832922 L18.3159782,20.8832922 C18.9831633,20.8842629 19.6273374,20.6407651 20.125502,20.1992893 C20.7044888,19.6841683 21.0338639,18.9469749 21.0302931,18.1742893 L21.0302931,15.4742893 C21.0074091,14.1850937 20.0713678,13.0918821 18.795502,12.8642893 Z M19.247883,18.2642893 C19.2475539,18.5227937 19.1354973,18.7686764 18.9402639,18.9392893 C18.7364052,19.1158693 18.4665784,19.1977006 18.1983592,19.1642893 C11.2281005,18.27527 5.74993428,12.8000047 4.88931155,5.86228926 C4.86021309,5.59588367 4.94193915,5.32923305 5.11550203,5.12428926 C5.2870176,4.93008343 5.53420127,4.81861661 5.79407346,4.81828926 L8.50835917,4.81828926 C8.94236695,4.80868298 9.32206431,5.10706515 9.41312108,5.52928926 C9.44931155,5.77528926 9.49454965,6.01828926 9.54883536,6.25828926 C9.65335298,6.73271894 9.79245071,7.19895098 9.96502584,7.65328926 L8.69835917,8.23828926 C8.47962033,8.33812105 8.30987922,8.52052823 8.22668063,8.74516441 C8.14348205,8.96980059 8.15368252,9.21815312 8.25502584,9.43528926 C9.55715973,12.2097688 11.7991998,14.4400087 14.5883592,15.7352893 C14.8086337,15.8253055 15.0557037,15.8253055 15.2759782,15.7352893 C15.5038974,15.6541944 15.6896448,15.4856325 15.7916925,15.2672893 L16.3526449,14.0072893 C16.8203762,14.1736787 17.2977463,14.3119284 17.7821687,14.4212893 C18.0234385,14.4752893 18.2677243,14.5202893 18.5150258,14.5562893 C18.9394839,14.6468668 19.2394449,15.0245657 19.2297877,15.4562893 L19.247883,18.2642893 Z" id="Shape"></path>
        </g>
    </g>
</svg>