<?xml version="1.0" encoding="UTF-8"?>
<svg width="17px" height="20px" viewBox="0 0 17 20" version="1.1" xmlns="http://www.w3.org/2000/svg" xmlns:xlink="http://www.w3.org/1999/xlink">
    <!-- Generator: Sketch 55.1 (78136) - https://sketchapp.com -->
    <title>Shape</title>
    <desc>Created with Sketch.</desc>
    <g id="Desktop" stroke="none" stroke-width="1" fill="none" fill-rule="evenodd">
        <g id="Desktop-HD-Contacto-abierto" transform="translate(-166.000000, -3737.000000)" fill="#364059" fill-rule="nonzero">
            <path d="M180.519293,3739.47771 C177.197804,3736.1741 171.812606,3736.1741 168.491117,3739.47771 C165.169628,3742.78133 165.169628,3748.13756 168.491117,3751.44118 L173.773491,3756.7051 C173.961699,3756.89384 174.217895,3757 174.485158,3757 C174.752422,3757 175.008618,3756.89384 175.196825,3756.7051 L180.519293,3751.39133 C183.826902,3748.10146 183.826902,3742.76759 180.519293,3739.47771 Z M179.085936,3749.96568 L174.505205,3754.54171 L169.924475,3749.96568 C167.397467,3747.44997 167.398718,3743.37325 169.927268,3740.85907 C172.455819,3738.34489 176.554591,3738.34489 179.083142,3740.85907 C181.611693,3743.37325 181.612943,3747.44997 179.085936,3749.96568 L179.085936,3749.96568 Z M171.498161,3742.39879 C169.813408,3744.07964 169.813408,3746.79937 171.498161,3748.48022 C172.727324,3749.70486 174.575127,3750.07666 176.186217,3749.42349 C177.797307,3748.77033 178.857269,3747.21969 178.875443,3745.48936 C178.884569,3744.34774 178.429036,3743.25099 177.612484,3742.44864 C176.81012,3741.63229 175.713514,3741.16797 174.565748,3741.15861 C173.417982,3741.14925 172.313872,3741.59563 171.498161,3742.39879 Z M176.199173,3747.06454 C175.415812,3747.85559 174.17914,3747.98464 173.247767,3747.37253 C172.316395,3746.76042 171.950768,3745.57833 172.375174,3744.55137 C172.799579,3743.52442 173.895337,3742.93978 174.990278,3743.1561 C176.085218,3743.37241 176.873156,3744.32918 176.870752,3745.43951 C176.856165,3746.0549 176.596596,3746.63937 176.149056,3747.06454 L176.199173,3747.06454 Z" id="Shape"></path>
        </g>
    </g>
</svg>