<?xml version="1.0" encoding="UTF-8"?>
<svg width="24px" height="30px" viewBox="0 0 24 30" version="1.1" xmlns="http://www.w3.org/2000/svg" xmlns:xlink="http://www.w3.org/1999/xlink">
    <!-- Generator: Sketch 55.1 (78136) - https://sketchapp.com -->
    <title>Shape</title>
    <desc>Created with Sketch.</desc>
    <g id="Symbols" stroke="none" stroke-width="1" fill="none" fill-rule="evenodd">
        <g id="1.Atomo/Icon/Servicios/Seguro" transform="translate(-6.000000, -1.000000)" fill="#ED1C23">
            <path d="M18,17.5 C17.1715729,17.5 16.5,18.1715729 16.5,19 L16.5,23.5 C16.5,24.3284271 17.1715729,25 18,25 C18.8284271,25 19.5,24.3284271 19.5,23.5 L19.5,19 C19.5,18.1715729 18.8284271,17.5 18,17.5 Z M25.5,11.5 L25.5,8.5 C25.5,4.35786438 22.1421356,1 18,1 C13.8578644,1 10.5,4.35786438 10.5,8.5 L10.5,11.5 C8.01471863,11.5 6,13.5147186 6,16 L6,26.5 C6,28.9852814 8.01471863,31 10.5,31 L25.5,31 C27.9852814,31 30,28.9852814 30,26.5 L30,16 C30,13.5147186 27.9852814,11.5 25.5,11.5 Z M13.5,8.5 C13.5,6.01471863 15.5147186,4 18,4 C20.4852814,4 22.5,6.01471863 22.5,8.5 L22.5,11.5 L13.5,11.5 L13.5,8.5 Z M27,26.5 C27,27.3284271 26.3284271,28 25.5,28 L10.5,28 C9.67157288,28 9,27.3284271 9,26.5 L9,16 C9,15.1715729 9.67157288,14.5 10.5,14.5 L25.5,14.5 C26.3284271,14.5 27,15.1715729 27,16 L27,26.5 Z" id="Shape"></path>
        </g>
    </g>
</svg>