<?xml version="1.0" encoding="utf-8"?>
<!-- Generator: Adobe Illustrator 22.0.0, SVG Export Plug-In . SVG Version: 6.00 Build 0)  -->
<svg version="1.1" id="Layer_1" xmlns="http://www.w3.org/2000/svg" xmlns:xlink="http://www.w3.org/1999/xlink" x="0px" y="0px"
	 viewBox="0 0 60 60" style="enable-background:new 0 0 60 60;" xml:space="preserve">
<style type="text/css">
	.st0{clip-path:url(#SVGID_2_);fill:#0050BB;}
	.st1{clip-path:url(#SVGID_2_);fill:#F0F0F0;}
	.st2{clip-path:url(#SVGID_2_);fill:#EB0018;}
</style>
<g>
	<defs>
		<circle id="SVGID_1_" cx="30" cy="30" r="30"/>
	</defs>
	<clipPath id="SVGID_2_">
		<use xlink:href="#SVGID_1_"  style="overflow:visible;"/>
	</clipPath>
	<circle class="st0" cx="30" cy="30.2" r="30.6"/>
	<polygon class="st1" points="57.8,8.1 52.1,2.4 30,24.5 7.9,2.4 2.2,8.1 24.3,30.2 2.2,52.3 7.9,58 30,35.9 52.1,58 57.8,52.3 
		35.7,30.2 	"/>
	<polygon class="st2" points="57.9,54.2 32.3,28.6 54.1,6.8 52.4,5.1 30.6,26.9 28.7,28.8 3.9,4 2.1,5.9 28.5,32.3 6.6,54.1 
		8.4,55.9 31.8,32.4 55.8,56.3 	"/>
	<polygon class="st1" points="64.5,19.8 37.9,19.8 37.9,-4.3 22,-4.3 22,19.8 -4.6,19.8 -4.6,35.8 22,35.8 22,64.7 37.9,64.7 
		37.9,35.8 64.5,35.8 	"/>
	<polygon class="st2" points="69.3,24.2 34,24.2 34,-11.1 26,-11.1 26,24.2 -9.3,24.2 -9.3,32.2 26,32.2 26,67.5 34,67.5 34,32.2 
		69.3,32.2 	"/>
</g>
</svg>
