<?xml version="1.0" encoding="UTF-8"?>
<svg width="26px" height="24px" viewBox="0 0 26 24" version="1.1" xmlns="http://www.w3.org/2000/svg" xmlns:xlink="http://www.w3.org/1999/xlink">
    <!-- Generator: Sketch 55.1 (78136) - https://sketchapp.com -->
    <title>Group 2</title>
    <desc>Created with Sketch.</desc>
    <g id="Desktop" stroke="none" stroke-width="1" fill="none" fill-rule="evenodd">
        <g id="Desktop-HD-Contacto-abierto" transform="translate(-170.000000, -3982.000000)" fill="#D71821" fill-rule="nonzero">
            <g id="Group-4" transform="translate(165.000000, 3945.000000)">
                <g id="Group-2" transform="translate(5.000000, 37.000000)">
                    <path d="M14.625,3.05533376e-13 C8.3525,3.05533376e-13 3.25,4.6656 3.25975,10.5216 C3.349125,11.1008 3.406,12.8 2.60975,13.7104 C2.205125,14.1744 1.616875,14.4 0.8125,14.4 C0.364,14.4 0,14.7584 0,15.2 C0,17.6176 2.036125,19.2704 6.056375,20.1104 C6.11325,20.1216 6.1685,20.128 6.225375,20.128 C6.60075,20.128 6.937125,19.8704 7.018375,19.4944 C7.111,19.0624 6.8315,18.6384 6.39275,18.5456 C3.739125,17.9904 2.182375,17.1072 1.750125,15.9168 C2.6065,15.7584 3.310125,15.368 3.848,14.7488 C5.289375,13.088 4.88475,10.4 4.875,10.4 C4.875,5.5472 9.247875,1.6 14.625,1.6 C20.002125,1.6 24.375,5.5472 24.375,10.4 C24.375,13.7056 22.342125,16.7088 19.071,18.2368 C18.66475,18.4256 18.4925,18.904 18.68425,19.3024 C18.877625,19.704 19.36675,19.8656 19.7665,19.6832 C23.61125,17.888 26,14.3312 26,10.4 C26,4.6656 20.895875,3.05533376e-13 14.625,3.05533376e-13 Z" id="Path"></path>
                    <path d="M16.407625,19.8704 C16.362125,19.4304 15.92825,19.1088 15.517125,19.1568 C15.21975,19.1856 14.922375,19.2 14.625,19.2 C12.962625,19.2 11.630125,19.1552 10.4325,19.0592 C9.992125,19.0352 9.594,19.352 9.556625,19.7904 C9.520875,20.2304 9.854,20.6176 10.300875,20.6528 C11.542375,20.7536 12.917125,20.8 14.625,20.8 C14.97925,20.8 15.331875,20.7824 15.682875,20.7472 C16.12975,20.7024 16.453125,20.3088 16.407625,19.8704 Z" id="Path"></path>
                    <path d="M17.875,17.6 C16.082625,17.6 14.625,19.0352 14.625,20.8 C14.625,22.5648 16.082625,24 17.875,24 C19.667375,24 21.125,22.5648 21.125,20.8 C21.125,19.0352 19.667375,17.6 17.875,17.6 Z M17.875,22.4 C16.978,22.4 16.25,21.6832 16.25,20.8 C16.25,19.9168 16.978,19.2 17.875,19.2 C18.772,19.2 19.5,19.9168 19.5,20.8 C19.5,21.6832 18.772,22.4 17.875,22.4 Z" id="Shape"></path>
                    <path d="M8.125,17.6 C6.332625,17.6 4.875,19.0352 4.875,20.8 C4.875,22.5648 6.332625,24 8.125,24 C9.917375,24 11.375,22.5648 11.375,20.8 C11.375,19.0352 9.917375,17.6 8.125,17.6 Z M8.125,22.4 C7.229625,22.4 6.5,21.6832 6.5,20.8 C6.5,19.9168 7.229625,19.2 8.125,19.2 C9.020375,19.2 9.75,19.9168 9.75,20.8 C9.75,21.6832 9.020375,22.4 8.125,22.4 Z" id="Shape"></path>
                    <path d="M11.4075,7.2 L11.39125,7.2 C10.94275,7.2 10.586875,7.5584 10.586875,8 C10.586875,8.4416 10.959,8.8 11.4075,8.8 C11.856,8.8 12.22,8.4416 12.22,8 C12.22,7.5584 11.856,7.2 11.4075,7.2 Z" id="Path"></path>
                    <path d="M17.9075,7.2 L17.89125,7.2 C17.44275,7.2 17.086875,7.5584 17.086875,8 C17.086875,8.4416 17.460625,8.8 17.9075,8.8 C18.356,8.8 18.72,8.4416 18.72,8 C18.72,7.5584 18.356,7.2 17.9075,7.2 Z" id="Path"></path>
                    <path d="M18.86625,11.2192 C18.425875,11.1264 17.99525,11.3936 17.8945,11.8256 C17.548375,13.3408 16.2045,14.4 14.625,14.4 C13.0455,14.4 11.701625,13.3408 11.3555,11.8256 C11.256375,11.3936 10.8225,11.1216 10.38375,11.2208 C9.946625,11.3168 9.672,11.7456 9.7695,12.1744 C10.284625,14.4288 12.28175,16 14.625,16 C16.969875,16 18.967,14.4272 19.482125,12.176 C19.579625,11.744 19.305,11.3168 18.86625,11.2192 Z" id="Path"></path>
                </g>
            </g>
        </g>
    </g>
</svg>