<?xml version="1.0" encoding="UTF-8"?>
<svg width="32px" height="29px" viewBox="0 0 32 29" version="1.1" xmlns="http://www.w3.org/2000/svg" xmlns:xlink="http://www.w3.org/1999/xlink">
    <!-- Generator: Sketch 55.1 (78136) - https://sketchapp.com -->
    <title>Shape</title>
    <desc>Created with Sketch.</desc>
    <g id="Symbols" stroke="none" stroke-width="1" fill="none" fill-rule="evenodd">
        <g id="1.Atomo/Icon/Servicios/Car" transform="translate(-2.000000, -2.000000)" fill="#ED1C23">
            <path d="M9.392,18.2044887 C8.99003159,18.3513847 8.67347808,18.6710236 8.528,19.07691 C8.2901003,19.6770416 8.42937226,20.3625919 8.8820503,20.8196821 C9.33472834,21.2767723 10.0136613,21.4174017 10.608,21.1771833 C10.8018958,21.0953665 10.9804785,20.9806154 11.136,20.8379083 C11.2773295,20.680871 11.390973,20.5005477 11.472,20.304762 C11.5615702,20.1130242 11.6054082,19.9027641 11.6,19.690836 C11.5941064,19.2630798 11.428374,18.8533662 11.136,18.5437636 C10.6759029,18.0853474 9.98783535,17.9514919 9.392,18.2044887 Z M30.416,11.7421093 L28.24,5.23126202 C27.5596933,3.28826076 25.7369503,1.9921277 23.696,2.00003599 L12.304,2.00003599 C10.2630497,1.9921277 8.44030665,3.28826076 7.76,5.23126202 L5.584,11.7905771 C3.47953374,12.3470386 2.00880582,14.2630348 2,16.4596463 L2,22.9220257 C2.00570299,24.9710118 3.28683408,26.7950132 5.2,27.4780032 L5.2,29.3844051 C5.2,30.2766735 5.9163444,31 6.8,31 C7.6836556,31 8.4,30.2766735 8.4,29.3844051 L8.4,27.7688103 L27.6,27.7688103 L27.6,29.3844051 C27.6,30.2766735 28.3163444,31 29.2,31 C30.0836556,31 30.8,30.2766735 30.8,29.3844051 L30.8,27.4780032 C32.7131659,26.7950132 33.994297,24.9710118 34,22.9220257 L34,16.4596463 C33.9911942,14.2630348 32.5204663,12.3470386 30.416,11.7905771 L30.416,11.7421093 Z M10.784,6.24908678 C11.0041154,5.59103607 11.6161345,5.14868936 12.304,5.15048228 L23.696,5.15048228 C24.4130438,5.11269114 25.0672097,5.56185968 25.296,6.24908678 L26.976,11.6128617 L9.024,11.6128617 L10.784,6.24908678 Z M30.8,22.9220257 C30.8,23.8142941 30.0836556,24.5376206 29.2,24.5376206 L6.8,24.5376206 C5.9163444,24.5376206 5.2,23.8142941 5.2,22.9220257 L5.2,16.4596463 C5.2,15.5673779 5.9163444,14.8440514 6.8,14.8440514 L29.2,14.8440514 C30.0836556,14.8440514 30.8,15.5673779 30.8,16.4596463 L30.8,22.9220257 Z M25.392,18.2044887 C24.9900316,18.3513847 24.6734781,18.6710236 24.528,19.07691 C24.2901003,19.6770416 24.4293723,20.3625919 24.8820503,20.8196821 C25.3347283,21.2767723 26.0136613,21.4174017 26.608,21.1771833 C27.0099684,21.0302872 27.3265219,20.7106484 27.472,20.304762 C27.5615702,20.1130242 27.6054082,19.9027641 27.6,19.690836 C27.5941064,19.2630798 27.428374,18.8533662 27.136,18.5437636 C26.6759029,18.0853474 25.9878354,17.9514919 25.392,18.2044887 Z M19.6,18.0752411 L16.4,18.0752411 C15.5163444,18.0752411 14.8,18.7985676 14.8,19.690836 C14.8,20.5831044 15.5163444,21.3064309 16.4,21.3064309 L19.6,21.3064309 C20.4836556,21.3064309 21.2,20.5831044 21.2,19.690836 C21.2,18.7985676 20.4836556,18.0752411 19.6,18.0752411 Z" id="Shape"></path>
        </g>
    </g>
</svg>