<?xml version="1.0" encoding="UTF-8"?>
<svg width="20px" height="20px" viewBox="0 0 20 20" version="1.1" xmlns="http://www.w3.org/2000/svg" xmlns:xlink="http://www.w3.org/1999/xlink">
    <!-- Generator: Sketch 55.1 (78136) - https://sketchapp.com -->
    <title>Shape</title>
    <desc>Created with Sketch.</desc>
    <g id="Symbols" stroke="none" stroke-width="1" fill="none" fill-rule="evenodd">
        <g id="1.atom/icon/time" transform="translate(-2.000000, -2.000000)" fill="#364059">
            <path d="M12,2 C6.4771525,2 2,6.4771525 2,12 C2,17.5228475 6.4771525,22 12,22 C17.5228475,22 22,17.5228475 22,12 C22,9.3478351 20.9464316,6.80429597 19.0710678,4.92893219 C17.195704,3.0535684 14.6521649,2 12,2 Z M12,20 C7.581722,20 4,16.418278 4,12 C4,7.581722 7.581722,4 12,4 C16.418278,4 20,7.581722 20,12 C20,14.1217319 19.1571453,16.1565632 17.6568542,17.6568542 C16.1565632,19.1571453 14.1217319,20 12,20 Z M12,6 C11.4477153,6 11,6.44771525 11,7 L11,11.42 L8.9,12.63 C8.50378734,12.8545181 8.3093119,13.318381 8.42694536,13.7583301 C8.54457881,14.1982792 8.94460708,14.5031839 9.4,14.5000247 C9.57517638,14.5012098 9.74759709,14.4563804 9.9,14.37 L12.5,12.87 L12.59,12.78 L12.75,12.65 C12.7891007,12.6004957 12.8226358,12.5468396 12.85,12.49 C12.88259,12.4363147 12.9094061,12.3793306 12.93,12.32 C12.9571999,12.2564177 12.9740788,12.188902 12.98,12.12 C12.98,12.12 13,12 13,12 L13,7 C13,6.44771525 12.5522847,6 12,6 Z" id="Shape"></path>
        </g>
    </g>
</svg>