<?xml version="1.0" encoding="UTF-8"?>
<svg width="28px" height="28px" viewBox="0 0 28 28" version="1.1" xmlns="http://www.w3.org/2000/svg" xmlns:xlink="http://www.w3.org/1999/xlink">
    <!-- Generator: Sketch 55.1 (78136) - https://sketchapp.com -->
    <title>Group 3</title>
    <desc>Created with Sketch.</desc>
    <g id="Desktop" stroke="none" stroke-width="1" fill="none" fill-rule="evenodd">
        <g id="Desktop-HD-Contacto-abierto" transform="translate(-310.000000, -3980.000000)" fill="#D71821" fill-rule="nonzero">
            <g id="Group-4" transform="translate(165.000000, 3945.000000)">
                <g id="Group-3" transform="translate(146.000000, 36.000000)">
                    <path d="M8.35590234,7.62769922 L5.70908203,7.62769922 C5.42237109,7.62769922 5.19009766,7.86007422 5.19009766,8.14668359 C5.19009766,8.43329297 5.42242187,8.66566797 5.70908203,8.66566797 L7.77288281,8.66566797 C7.54066016,9.58897266 6.70337891,10.2744688 5.70908203,10.2744688 C4.53583203,10.2744688 3.58129687,9.31998438 3.58129687,8.14668359 C3.58129687,6.97338281 4.53583203,6.01889844 5.70908203,6.01889844 C6.27742578,6.01889844 6.81179687,6.24020313 7.21373047,6.64213672 C7.41634766,6.84480469 7.74500391,6.84475391 7.94767187,6.64213672 C8.15033984,6.43946875 8.15033984,6.1108125 7.94762109,5.90814453 C7.34967187,5.31019531 6.55469141,4.98092969 5.70903125,4.98092969 C3.963375,4.98092969 2.54322656,6.40112891 2.54322656,8.14673438 C2.54322656,9.89233984 3.96342578,11.3125391 5.70908203,11.3125391 C7.45473828,11.3125391 8.87488673,9.89239063 8.87488673,8.14673438 C8.87488673,7.86007422 8.64261328,7.62769922 8.35590234,7.62769922 Z" id="Path"></path>
                    <path d="M19.5013711,3.3304375 C17.7787695,3.3304375 16.3773594,4.73184766 16.3773594,6.45439844 C16.3773594,8.17694922 17.7787695,9.57835937 19.5013711,9.57835937 C21.2239219,9.57835937 22.625332,8.17694922 22.625332,6.45439844 C22.625332,4.73184766 21.2239219,3.3304375 19.5013711,3.3304375 Z M19.5013711,8.54028906 C18.3511758,8.54028906 17.4153789,7.60454297 17.4153789,6.45434766 C17.4153789,5.30415234 18.351125,4.36840625 19.5013711,4.36840625 C20.6516172,4.36840625 21.5873125,5.30415234 21.5873125,6.45434766 C21.5873125,7.60454297 20.6515664,8.54028906 19.5013711,8.54028906 Z" id="Shape"></path>
                    <path d="M19.5013711,0 C17.2305352,0 15.2300586,1.17898828 14.0792539,2.95673828 L2.50575,2.95673828 C1.12409375,2.95673828 -1.77635684e-13,4.08083203 -1.77635684e-13,5.46248828 L-1.77635684e-13,23.4941992 C-1.77635684e-13,24.8759062 1.12409375,26 2.50575,26 L20.5374609,26 C21.9191172,26 23.0432109,24.8759062 23.0432109,23.49425 L23.0432109,12.2566641 C23.3536367,11.8302031 23.6935156,11.4137461 24.0659453,11.0171445 C25.2846445,9.79803906 25.9557695,8.17832031 25.9557695,6.45434766 C25.9557695,2.89544531 23.0603242,0 19.5013711,0 Z M1.03796875,5.46253906 C1.03796875,4.65323828 1.69634766,3.99480859 2.50569922,3.99480859 L13.5344727,3.99480859 C13.2206445,4.75322656 13.0470742,5.58385547 13.0470742,6.45434766 C13.0470742,7.48144922 13.2853398,8.47142969 13.7355664,9.36182813 L1.03796875,22.2293906 L1.03796875,5.46253906 Z M2.44460937,24.9589336 C1.73032031,24.9293281 1.14730078,24.3881016 1.05284766,23.692043 L14.2958359,10.2718281 C14.4887539,10.5336055 14.702543,10.7828906 14.9367969,11.0171953 C15.1444922,11.2383477 15.3420312,11.4658477 15.530125,11.6977656 L2.44460937,24.9589336 Z M16.1590508,12.5383477 C17.6288633,14.6663359 18.3877891,16.9930313 18.7360977,18.3423906 L14.5284648,14.1908203 L16.1590508,12.5383477 Z M3.89964453,24.9619805 L11.5842187,17.1745234 L19.4755742,24.9619805 L3.89964453,24.9619805 Z M22.0051406,23.49425 C22.0051406,24.1766992 21.5363789,24.7501719 20.9043555,24.9136875 L12.3132344,16.4356563 L13.7993477,14.9296367 L22.0051406,23.0261484 L22.0051406,23.49425 L22.0051406,23.49425 Z M22.005293,21.5679648 L22.0052422,21.5679648 L19.9915117,19.5809961 C20.0017695,19.5514922 20.0094883,19.5207695 20.0144141,19.4889805 C20.0201523,19.4521641 20.4585469,16.7194727 22.0053437,13.8993359 L22.0053437,21.5679648 L22.005293,21.5679648 Z M23.3217969,10.2932578 C23.3137734,10.3012813 23.3060039,10.3095078 23.2985391,10.3180391 C21.1962969,12.5618086 20.0693594,15.3296406 19.5013203,17.2030625 C18.933332,15.3296406 17.8062422,12.5617578 15.7041016,10.3179883 C15.6966367,10.3095586 15.6888672,10.301332 15.680793,10.2932578 C14.6517109,9.26910156 14.0849414,7.90577734 14.0849414,6.45434766 C14.0849414,3.46775 16.5146719,1.03796875 19.5013203,1.03796875 C22.4879687,1.03796875 24.91775,3.46775 24.91775,6.45429688 C24.91775,7.90567578 24.3509805,9.269 23.3217969,10.2932578 Z" id="Shape" stroke="#D71821" stroke-width="0.2"></path>
                </g>
            </g>
        </g>
    </g>
</svg>