<?xml version="1.0" encoding="UTF-8"?>
<svg width="22px" height="22px" viewBox="0 0 22 22" version="1.1" xmlns="http://www.w3.org/2000/svg" xmlns:xlink="http://www.w3.org/1999/xlink">
    <!-- Generator: Sketch 55.1 (78136) - https://sketchapp.com -->
    <title>Shape Copy</title>
    <desc>Created with Sketch.</desc>
    <g id="Desktop" stroke="none" stroke-width="1" fill="none" fill-rule="evenodd">
        <g id="Desktop-HD-Contacto-abierto" transform="translate(-139.000000, -4555.000000)" fill="#FFFFFF">
            <g id="Group" transform="translate(106.000000, 4281.000000)">
                <path d="M43.9997391,274.007031 C41.1037671,273.901673 38.2906445,274.98485 36.2134154,277.005111 C34.1361864,279.025372 32.9755169,281.807005 33.0008471,284.704278 C32.9628407,287.692573 34.2052762,290.554371 36.4145632,292.567354 L36.466288,294.257319 C36.496763,295.228539 37.2930701,296 38.2649368,296 C38.5149927,295.999679 38.7622992,295.947835 38.9914236,295.847702 L40.9121301,295.001255 C41.9193364,295.269363 42.9574204,295.403942 43.9997091,295.401535 C46.8957875,295.506936 49.7090381,294.423804 51.7864353,292.403562 C53.8638325,290.383319 55.0247106,287.60166 54.999601,284.704278 C55.0247075,281.806903 53.8638323,279.025252 51.786442,277.005012 C49.7090517,274.984772 46.8958106,273.901638 43.9997391,274.007031 Z M43.9997391,293.402085 C43.1097788,293.40465 42.2235671,293.286748 41.3652445,293.051591 C40.9677682,292.944392 40.5455386,292.976787 40.169075,293.143366 L38.4553776,293.899018 L38.4104622,292.406269 C38.3903798,291.917763 38.1734033,291.45818 37.8089527,291.132199 C35.9894359,289.494794 34.9657113,287.151596 35.0006457,284.704278 C34.9877065,282.341001 35.9416622,280.075167 37.6411351,278.432594 C39.340608,276.790021 41.6378436,275.913515 43.9997391,276.006481 C47.1782183,275.898456 50.1626042,277.532216 51.7838547,280.267785 C53.4051052,283.003355 53.4051052,286.405211 51.7838547,289.140781 C50.1626042,291.87635 47.1782183,293.51011 43.9997391,293.402085 L43.9997391,293.402085 Z M47.7337429,281.589905 L45.4214759,284.344027 L42.075133,282.287953 C41.6529657,282.028152 41.1040583,282.117558 40.7861928,282.497895 L37.7347502,286.133575 C37.5038842,286.406884 37.4367595,286.782736 37.5587525,287.119042 C37.6807454,287.455347 37.9732427,287.700794 38.3256669,287.762592 C38.6780911,287.824389 39.0366706,287.693109 39.265846,287.418381 L41.7635944,284.44361 L45.1099372,286.498714 C45.5318775,286.758678 46.0806953,286.669712 46.3988674,286.289772 L49.2647987,282.874711 C49.4970581,282.601567 49.5651672,282.224953 49.4432801,281.887786 C49.321393,281.550618 49.0281909,281.304573 48.6749374,281.24302 C48.3216839,281.181467 47.962521,281.313839 47.7337429,281.589905 L47.7337429,281.589905 Z" id="Shape-Copy"></path>
            </g>
        </g>
    </g>
</svg>