<?xml version="1.0" encoding="UTF-8"?>
<svg width="29px" height="29px" viewBox="0 0 29 29" version="1.1" xmlns="http://www.w3.org/2000/svg" xmlns:xlink="http://www.w3.org/1999/xlink">
    <!-- Generator: Sketch 55.1 (78136) - https://sketchapp.com -->
    <title>Group</title>
    <desc>Created with Sketch.</desc>
    <g id="Symbols" stroke="none" stroke-width="1" fill="none" fill-rule="evenodd">
        <g id="1.Atomo/Icon/Servicios/Movilidad" transform="translate(-4.000000, -2.000000)" fill="#ED1C23" stroke="#ED1C23" stroke-width="0.5">
            <g id="Group" transform="translate(4.000000, 2.000000)">
                <path d="M14.5,0.25 C6.6427372,0.25 0.25,6.6427372 0.25,14.5 C0.25,22.3572628 6.6427372,28.75 14.5,28.75 C22.3572628,28.75 28.75,22.3572628 28.75,14.5 C28.75,6.6427372 22.3572628,0.25 14.5,0.25 Z M14.5,27.5507812 C7.30354405,27.5507812 1.44921875,21.696456 1.44921875,14.5 C1.44921875,7.30354405 7.30354405,1.44921875 14.5,1.44921875 C21.696456,1.44921875 27.5507812,7.30354405 27.5507812,14.5 C27.5507812,21.696456 21.696456,27.5507812 14.5,27.5507812 Z" id="Shape"></path>
                <path d="M14.5,3.89012305 C8.64991103,3.89012305 3.89012305,8.64991103 3.89012305,14.5 C3.89012305,20.350089 8.64991103,25.109877 14.5,25.109877 C20.350089,25.109877 25.109877,20.350089 25.109877,14.5 C25.109877,8.64991103 20.350089,3.89012305 14.5,3.89012305 Z M12.3695313,14.5 C12.3695313,13.3250273 13.3250471,12.3695313 14.5,12.3695313 C15.6749345,12.3695313 16.6304687,13.3250655 16.6304687,14.5 C16.6304687,15.6749345 15.6749345,16.6304687 14.5,16.6304687 C13.3250471,16.6304687 12.3695313,15.6749727 12.3695313,14.5 Z M5.0893418,14.5 C5.0893418,13.547871 5.23172858,12.6136837 5.50851902,11.7201339 L5.58965721,11.4581992 L11.2387799,13.7981942 L11.208986,13.9920706 C11.1833081,14.1591632 11.1703125,14.328805 11.1703125,14.5000566 C11.1703125,14.6712887 11.183305,14.8408767 11.2089878,15.0080545 L11.238771,15.2019228 L5.58964769,17.541918 L5.50851625,17.2799704 C5.23172328,16.3862941 5.0893418,15.4521123 5.0893418,14.5 Z M17.761229,13.7981339 L23.4103322,11.458147 L23.4914779,11.7200673 C23.7683193,12.6136499 23.9107148,13.5477839 23.9107148,14.4999434 C23.9107148,15.4521243 23.7683124,16.3863182 23.4914765,17.2798238 L23.4103274,17.5417378 L17.7612201,15.2017492 L17.791014,15.0078728 C17.8166919,14.8407802 17.8296875,14.6711384 17.8296875,14.4998867 C17.8296875,14.3286844 17.8166997,14.1592105 17.7910122,13.9920022 L17.761229,13.7981339 Z M22.9495944,10.3510127 L17.300327,12.6910106 L17.1842708,12.5330782 C16.9829574,12.2591253 16.7408747,12.0170426 16.4669218,11.8157292 L16.3089873,11.6996714 L18.6490457,6.05046723 L18.8918911,6.17914686 C20.5623899,7.06431574 21.9356827,8.43760854 22.8209083,10.1081627 L22.9495944,10.3510127 Z M17.5418008,5.58965721 L15.2018058,11.2387799 L15.0079294,11.208986 C14.8408433,11.1833091 14.6712018,11.1703125 14.5,11.1703125 C14.328803,11.1703125 14.1591582,11.1833083 13.9920022,11.2089878 L13.7981339,11.238771 L11.458147,5.58966782 L11.7200673,5.5085221 C12.6136567,5.23167857 13.5477915,5.08928516 14.500015,5.08928516 C15.4521802,5.08934244 16.3863638,5.2317433 17.2798661,5.50851902 L17.5418008,5.58965721 Z M10.3510095,6.05040733 L12.6910694,11.6996148 L12.5331348,11.8156725 C12.2591819,12.016986 12.0170426,12.2591253 11.8157292,12.5330782 L11.6996726,12.6910112 L6.05046971,10.3510147 L6.17914517,10.1081687 C7.06430579,8.43762731 8.43759198,7.06432605 10.1081627,6.17909172 L10.3510095,6.05040733 Z M6.05040613,18.6489882 L11.6996159,16.3089888 L11.8156725,16.4669218 C12.016986,16.7408747 12.2591253,16.983014 12.5330782,17.1843275 L12.6910127,17.3003852 L10.3509514,22.9495963 L10.1081029,22.8209066 C8.43759178,21.935673 7.06430825,20.5623744 6.17909172,18.8918373 L6.05040613,18.6489882 Z M11.4581406,23.4103475 L13.7981375,17.7612201 L13.992014,17.791014 C14.1591065,17.8166919 14.3287483,17.8296875 14.5,17.8296875 C14.6712018,17.8296875 14.8408433,17.8166909 15.0079294,17.791014 L15.2018058,17.7612201 L17.5417964,23.4103322 L17.279876,23.4914779 C16.3863833,23.7682915 15.4522462,23.9106582 14.5,23.9106582 C13.5478794,23.9106582 12.6136948,23.7682741 11.7200818,23.4914824 L11.4581406,23.4103475 Z M18.6489876,22.9495291 L16.3089306,17.3003286 L16.4668652,17.1842708 C16.7408181,16.9829574 16.9829007,16.7408747 17.1842142,16.4669218 L17.3002703,16.3089894 L22.9495308,18.6489844 L22.8208548,18.8918313 C21.9356852,20.5623897 20.5623897,21.9356852 18.8918313,22.8208548 L18.6489876,22.9495291 Z" id="Shape"></path>
            </g>
        </g>
    </g>
</svg>