<?xml version="1.0" encoding="UTF-8"?>
<svg width="32px" height="31px" viewBox="0 0 32 31" version="1.1" xmlns="http://www.w3.org/2000/svg" xmlns:xlink="http://www.w3.org/1999/xlink">
    <!-- Generator: Sketch 55.1 (78136) - https://sketchapp.com -->
    <title>1487030758_square-facebook</title>
    <desc>Created with Sketch.</desc>
    <g id="Symbols" stroke="none" stroke-width="1" fill="none" fill-rule="evenodd">
        <g id="footer-desktop-toyota" transform="translate(-641.000000, -74.000000)">
            <g id="Group-2" transform="translate(641.000000, 74.000000)">
                <g id="1487030758_square-facebook">
                    <g id="Layer_1">
                        <g id="Group">
                            <path d="M31.1392405,29.0625 C31.1392405,30.132 30.2673418,31 29.193038,31 L1.94620253,31 C0.871898734,31 0,30.132 0,29.0625 L0,1.9375 C0,0.868 0.871898734,0 1.94620253,0 L29.193038,0 C30.2673418,0 31.1392405,0.868 31.1392405,1.9375 L31.1392405,29.0625 Z" id="Shape" fill="#3B5998"></path>
                            <path d="M21.4082278,31 L21.4082278,19.375 L25.3006329,19.375 L26.2737342,14.53125 L21.4082278,14.53125 L21.4082278,12.59375 C21.4082278,10.65625 22.3832753,9.6875 24.3275316,9.6875 L26.2737342,9.6875 L26.2737342,4.84375 L22.3813291,4.84375 C18.805182,4.84375 16.5427215,7.63471875 16.5427215,11.625 L16.5427215,14.53125 L12.6503165,14.53125 L12.6503165,19.375 L16.5427215,19.375 L16.5427215,31 L21.4082278,31 Z" id="f" fill="#FFFFFF"></path>
                        </g>
                    </g>
                </g>
            </g>
        </g>
    </g>
</svg>