<?xml version="1.0" encoding="utf-8"?>
<!-- Generator: Adobe Illustrator 22.0.0, SVG Export Plug-In . SVG Version: 6.00 Build 0)  -->
<svg version="1.1" id="Layer_1" xmlns="http://www.w3.org/2000/svg" xmlns:xlink="http://www.w3.org/1999/xlink" x="0px" y="0px"
	 viewBox="0 0 60 60" style="enable-background:new 0 0 60 60;" xml:space="preserve">
<style type="text/css">
	.st0{clip-path:url(#SVGID_2_);fill:#B22234;}
	.st1{clip-path:url(#SVGID_2_);fill:#FFFFFF;}
	.st2{clip-path:url(#SVGID_2_);fill:#3C3B6E;}
	.st3{clip-path:url(#SVGID_2_);}
	.st4{fill:#FFFFFF;}
</style>
<g>
	<defs>
		<circle id="SVGID_1_" cx="29.4" cy="29.8" r="29.5"/>
	</defs>
	<clipPath id="SVGID_2_">
		<use xlink:href="#SVGID_1_"  style="overflow:visible;"/>
	</clipPath>
	<rect x="-18.1" y="0.3" class="st0" width="120.8" height="63.6"/>
	<rect x="30.2" y="6.5" class="st1" width="90.7" height="4.6"/>
	<rect x="30.2" y="15.9" class="st1" width="90.7" height="4.6"/>
	<rect x="30.2" y="25.2" class="st1" width="90.7" height="4.6"/>
	<rect x="-8.2" y="34.7" class="st1" width="90.7" height="4.6"/>
	<rect x="-8.2" y="44.1" class="st1" width="90.7" height="4.6"/>
	<rect x="-8.2" y="53.4" class="st1" width="90.7" height="4.6"/>
	<rect x="-18.1" y="0.4" class="st2" width="48.3" height="34.2"/>
	<g class="st3">
		<g>
			<g>
				<g id="s5">
					<g id="s4">
						<path id="s" class="st4" d="M-14.1,1.7l1.1,3.5l-3-2.2h3.7l-3,2.2L-14.1,1.7z"/>
						<g>
							<path id="s_1_" class="st4" d="M-14.1,8.6l1.1,3.5l-3-2.2h3.7l-3,2.2L-14.1,8.6z"/>
						</g>
						<g>
							<path id="s_2_" class="st4" d="M-14.1,15.4l1.1,3.5l-3-2.2h3.7l-3,2.2L-14.1,15.4z"/>
						</g>
						<g>
							<path id="s_3_" class="st4" d="M-14.1,22.3l1.1,3.5l-3-2.2h3.7l-3,2.2L-14.1,22.3z"/>
						</g>
					</g>
					<g>
						<path id="s_4_" class="st4" d="M-14.1,29.1l1.1,3.5l-3-2.2h3.7l-3,2.2L-14.1,29.1z"/>
					</g>
				</g>
				<g id="s9">
					<g id="s4_1_">
						<path id="s_5_" class="st4" d="M-10.1,5.2l1.1,3.5l-3-2.2h3.7l-3,2.2L-10.1,5.2z"/>
						<g>
							<path id="s_6_" class="st4" d="M-10.1,12l1.1,3.5l-3-2.2h3.7l-3,2.2L-10.1,12z"/>
						</g>
						<g>
							<path id="s_7_" class="st4" d="M-10.1,18.9l1.1,3.5l-3-2.2h3.7l-3,2.2L-10.1,18.9z"/>
						</g>
						<g>
							<path id="s_8_" class="st4" d="M-10.1,25.7l1.1,3.5l-3-2.2h3.7l-3,2.2L-10.1,25.7z"/>
						</g>
					</g>
				</g>
				<g>
					<g id="s18">
						<g id="s5_1_">
							<g id="s4_2_">
								<path id="s_9_" class="st4" d="M-6,1.7l1.1,3.5l-3-2.2h3.7l-3,2.2L-6,1.7z"/>
								<g>
									<path id="s_10_" class="st4" d="M-6,8.6l1.1,3.5l-3-2.2h3.7l-3,2.2L-6,8.6z"/>
								</g>
								<g>
									<path id="s_11_" class="st4" d="M-6,15.4l1.1,3.5l-3-2.2h3.7l-3,2.2L-6,15.4z"/>
								</g>
								<g>
									<path id="s_12_" class="st4" d="M-6,22.3l1.1,3.5l-3-2.2h3.7l-3,2.2L-6,22.3z"/>
								</g>
							</g>
							<g>
								<path id="s_13_" class="st4" d="M-6,29.1l1.1,3.5l-3-2.2h3.7l-3,2.2L-6,29.1z"/>
							</g>
						</g>
						<g id="s9_1_">
							<g id="s4_3_">
								<path id="s_14_" class="st4" d="M-2,5.2l1.1,3.5l-3-2.2h3.7l-3,2.2L-2,5.2z"/>
								<g>
									<path id="s_15_" class="st4" d="M-2,12l1.1,3.5l-3-2.2h3.7l-3,2.2L-2,12z"/>
								</g>
								<g>
									<path id="s_16_" class="st4" d="M-2,18.9l1.1,3.5l-3-2.2h3.7l-3,2.2L-2,18.9z"/>
								</g>
								<g>
									<path id="s_17_" class="st4" d="M-2,25.7l1.1,3.5l-3-2.2h3.7l-3,2.2L-2,25.7z"/>
								</g>
							</g>
						</g>
					</g>
					<g>
						<g>
							<g>
								<g id="s5_2_">
									<g id="s4_4_">
										<path id="s_18_" class="st4" d="M2,1.7l1.1,3.5l-3-2.2h3.7l-3,2.2L2,1.7z"/>
										<g>
											<path id="s_19_" class="st4" d="M2,8.6l1.1,3.5l-3-2.2h3.7l-3,2.2L2,8.6z"/>
										</g>
										<g>
											<path id="s_20_" class="st4" d="M2,15.4L3.2,19l-3-2.2h3.7l-3,2.2L2,15.4z"/>
										</g>
										<g>
											<path id="s_21_" class="st4" d="M2,22.3l1.1,3.5l-3-2.2h3.7l-3,2.2L2,22.3z"/>
										</g>
									</g>
									<g>
										<path id="s_22_" class="st4" d="M2,29.1l1.1,3.5l-3-2.2h3.7l-3,2.2L2,29.1z"/>
									</g>
								</g>
								<g id="s9_2_">
									<g id="s4_5_">
										<path id="s_23_" class="st4" d="M6,5.2l1.1,3.5l-3-2.2h3.7l-3,2.2L6,5.2z"/>
										<g>
											<path id="s_24_" class="st4" d="M6,12l1.1,3.5l-3-2.2h3.7l-3,2.2L6,12z"/>
										</g>
										<g>
											<path id="s_25_" class="st4" d="M6,18.9l1.1,3.5l-3-2.2h3.7l-3,2.2L6,18.9z"/>
										</g>
										<g>
											<path id="s_26_" class="st4" d="M6,25.7l1.1,3.5l-3-2.2h3.7l-3,2.2L6,25.7z"/>
										</g>
									</g>
								</g>
								<g>
									<g id="s18_1_">
										<g id="s5_3_">
											<g id="s4_6_">
												<path id="s_27_" class="st4" d="M10.1,1.7l1.1,3.5l-3-2.2h3.7l-3,2.2L10.1,1.7z"/>
												<g>
													<path id="s_28_" class="st4" d="M10.1,8.6l1.1,3.5l-3-2.2h3.7l-3,2.2L10.1,8.6z"/>
												</g>
												<g>
													<path id="s_29_" class="st4" d="M10.1,15.4l1.1,3.5l-3-2.2h3.7l-3,2.2L10.1,15.4z"/>
												</g>
												<g>
													<path id="s_30_" class="st4" d="M10.1,22.3l1.1,3.5l-3-2.2h3.7l-3,2.2L10.1,22.3z"/>
												</g>
											</g>
											<g>
												<path id="s_31_" class="st4" d="M10.1,29.1l1.1,3.5l-3-2.2h3.7l-3,2.2L10.1,29.1z"/>
											</g>
										</g>
										<g id="s9_3_">
											<g id="s4_7_">
												<path id="s_32_" class="st4" d="M14.1,5.2l1.1,3.5l-3-2.2h3.7l-3,2.2L14.1,5.2z"/>
												<g>
													<path id="s_33_" class="st4" d="M14.1,12l1.1,3.5l-3-2.2h3.7l-3,2.2L14.1,12z"/>
												</g>
												<g>
													<path id="s_34_" class="st4" d="M14.1,18.9l1.1,3.5l-3-2.2h3.7l-3,2.2L14.1,18.9z"/>
												</g>
												<g>
													<path id="s_35_" class="st4" d="M14.1,25.7l1.1,3.5l-3-2.2h3.7l-3,2.2L14.1,25.7z"/>
												</g>
											</g>
										</g>
									</g>
									<g>
										<g>
											<g id="s5_4_">
												<g id="s4_8_">
													<path id="s_36_" class="st4" d="M18.1,1.7l1.1,3.5l-3-2.2H20l-3,2.2L18.1,1.7z"/>
													<g>
														<path id="s_37_" class="st4" d="M18.1,8.6l1.1,3.5l-3-2.2H20l-3,2.2L18.1,8.6z"/>
													</g>
													<g>
														<path id="s_38_" class="st4" d="M18.1,15.4l1.1,3.5l-3-2.2H20L17,19L18.1,15.4z"/>
													</g>
													<g>
														<path id="s_39_" class="st4" d="M18.1,22.3l1.1,3.5l-3-2.2H20l-3,2.2L18.1,22.3z"/>
													</g>
												</g>
												<g>
													<path id="s_40_" class="st4" d="M18.1,29.1l1.1,3.5l-3-2.2H20l-3,2.2L18.1,29.1z"/>
												</g>
											</g>
											<g id="s9_4_">
												<g id="s4_9_">
													<path id="s_41_" class="st4" d="M22.1,5.2l1.1,3.5l-3-2.2H24l-3,2.2L22.1,5.2z"/>
													<g>
														<path id="s_42_" class="st4" d="M22.1,12l1.1,3.5l-3-2.2H24l-3,2.2L22.1,12z"/>
													</g>
													<g>
														<path id="s_43_" class="st4" d="M22.1,18.9l1.1,3.5l-3-2.2H24l-3,2.2L22.1,18.9z"/>
													</g>
													<g>
														<path id="s_44_" class="st4" d="M22.1,25.7l1.1,3.5l-3-2.2H24l-3,2.2L22.1,25.7z"/>
													</g>
												</g>
											</g>
											<g>
												<g id="s5_5_">
													<g id="s4_10_">
														<path id="s_45_" class="st4" d="M26.2,1.7l1.1,3.5l-3-2.2H28l-3,2.2L26.2,1.7z"/>
														<g>
															<path id="s_46_" class="st4" d="M26.2,8.6l1.1,3.5l-3-2.2H28l-3,2.2L26.2,8.6z"/>
														</g>
														<g>
															<path id="s_47_" class="st4" d="M26.2,15.4l1.1,3.5l-3-2.2H28L25,19L26.2,15.4z"/>
														</g>
														<g>
															<path id="s_48_" class="st4" d="M26.2,22.3l1.1,3.5l-3-2.2H28l-3,2.2L26.2,22.3z"/>
														</g>
													</g>
													<g>
														<path id="s_49_" class="st4" d="M26.2,29.1l1.1,3.5l-3-2.2H28l-3,2.2L26.2,29.1z"/>
													</g>
												</g>
											</g>
										</g>
									</g>
								</g>
							</g>
						</g>
					</g>
				</g>
			</g>
		</g>
	</g>
</g>
</svg>
