<?xml version="1.0" encoding="UTF-8"?>
<svg width="29px" height="25px" viewBox="0 0 29 25" version="1.1" xmlns="http://www.w3.org/2000/svg" xmlns:xlink="http://www.w3.org/1999/xlink">
    <!-- Generator: Sketch 55.1 (78136) - https://sketchapp.com -->
    <title>1487030705_Twitter</title>
    <desc>Created with Sketch.</desc>
    <g id="Symbols" stroke="none" stroke-width="1" fill="none" fill-rule="evenodd">
        <g id="footer-desktop-toyota" transform="translate(-699.000000, -77.000000)">
            <g id="Group-2" transform="translate(641.000000, 74.000000)">
                <g id="1487030705_Twitter" transform="translate(58.386076, 1.291667)">
                    <g id="Social_Icons">
                        <g id="_x37__stroke">
                            <g id="Twitter">
                                <rect id="Rectangle-path" x="0.221273673" y="0" width="28.3230301" height="28.4166667"></rect>
                                <path d="M28.5443038,5.17138932 C27.5036537,5.64692448 26.3831238,5.96838802 25.2077181,6.11202539 C26.4079065,5.37319206 27.3290688,4.20144857 27.7629865,2.80592383 C26.6391375,3.49014388 25.3973496,3.98787956 24.0705927,4.25472982 C23.0133471,3.09342057 21.5020479,2.36812956 19.8296615,2.36812956 C16.6227421,2.36812956 14.0210063,5.04484635 14.0210063,8.3460638 C14.0210063,8.8147168 14.0707929,9.26960547 14.1705873,9.70762174 C9.34151065,9.45764388 5.06075017,7.0801901 2.1928221,3.45928516 C1.69252232,4.34530794 1.40641546,5.37319206 1.40641546,6.46789974 C1.40641546,8.54098437 2.43224021,10.3709733 3.99155578,11.4434805 C3.04074281,11.4143978 2.14281425,11.1424414 1.3581778,10.697765 L1.3581778,10.7712487 C1.3581778,13.6686387 3.36136836,16.0853874 6.02129919,16.6328522 C5.53427583,16.7731595 5.02047836,16.8433132 4.49008537,16.8433132 C4.11613286,16.8433132 3.75036748,16.8073483 3.39610833,16.7371947 C4.13582622,19.1113184 6.28041066,20.8405169 8.82395153,20.886694 C6.8355863,22.4911257 4.32877686,23.4470801 1.60733196,23.4470801 C1.13845305,23.4470801 0.674663429,23.4197734 0.220831126,23.3649382 C2.79269503,25.0581719 5.84826317,26.0485371 9.12820283,26.0485371 C19.8177127,26.0485371 25.6611078,16.9405514 25.6611078,9.04027409 C25.6611078,8.78030599 25.6560185,8.52033789 25.6460612,8.26547591 C26.7820803,7.42230013 27.7678545,6.37043945 28.5443038,5.17138932" id="Twitter_1_" fill="#00AAEC"></path>
                            </g>
                        </g>
                    </g>
                </g>
            </g>
        </g>
    </g>
</svg>