<?xml version="1.0" encoding="UTF-8"?>
<svg width="32px" height="23px" viewBox="0 0 32 23" version="1.1" xmlns="http://www.w3.org/2000/svg" xmlns:xlink="http://www.w3.org/1999/xlink">
    <!-- Generator: Sketch 55.1 (78136) - https://sketchapp.com -->
    <title>1487030679_Youtube</title>
    <desc>Created with Sketch.</desc>
    <g id="Symbols" stroke="none" stroke-width="1" fill="none" fill-rule="evenodd">
        <g id="footer-desktop-toyota" transform="translate(-756.000000, -78.000000)">
            <g id="Group-2" transform="translate(641.000000, 74.000000)">
                <g id="1487030679_Youtube" transform="translate(115.474684, 0.000000)">
                    <g id="Social_Icons">
                        <g id="_x34__stroke">
                            <g id="Youtube_1_">
                                <rect id="Rectangle-path" x="0" y="0" width="31.1392405" height="31"></rect>
                                <path d="M30.8278481,9.257375 C30.8278481,9.257375 30.5232674,7.10602344 29.5900633,6.15882813 C28.4057991,4.91495313 27.0784889,4.90914063 26.4703006,4.83696875 C22.1127532,4.52091406 15.576432,4.52091406 15.576432,4.52091406 L15.5628085,4.52091406 C15.5628085,4.52091406 9.02648734,4.52091406 4.66893987,4.83696875 C4.05977848,4.90914063 2.73344146,4.91495313 1.54820411,6.15882813 C0.615,7.10626563 0.311392405,9.257375 0.311392405,9.257375 C0.311392405,9.257375 0,11.7843594 0,14.3101328 L0,16.6789688 C0,19.2057109 0.311392405,21.7317266 0.311392405,21.7317266 C0.311392405,21.7317266 0.615,23.8830781 1.54820411,24.8302734 C2.73344146,26.0741484 4.28943038,26.0351563 4.98227848,26.1649688 C7.47341772,26.4049766 15.5696203,26.4790859 15.5696203,26.4790859 C15.5696203,26.4790859 22.1127532,26.4693984 26.4703006,26.1533438 C27.0784889,26.0802031 28.4057991,26.0743906 29.5900633,24.8305156 C30.5232674,23.8830781 30.8278481,21.7319688 30.8278481,21.7319688 C30.8278481,21.7319688 31.1392405,19.2059531 31.1392405,16.6789688 L31.1392405,14.3101328 C31.1392405,11.7843594 30.8278481,9.257375 30.8278481,9.257375 Z M12.3544937,19.549375 L12.3535206,10.7775859 L20.7669541,15.1786172 L12.3544937,19.549375 Z" id="Youtube" fill="#CE1312"></path>
                            </g>
                        </g>
                    </g>
                </g>
            </g>
        </g>
    </g>
</svg>