<?xml version="1.0" encoding="UTF-8"?>
<svg width="17px" height="17px" viewBox="0 0 17 17" version="1.1" xmlns="http://www.w3.org/2000/svg" xmlns:xlink="http://www.w3.org/1999/xlink">
    <!-- Generator: Sketch 55.1 (78136) - https://sketchapp.com -->
    <title>Path</title>
    <desc>Created with Sketch.</desc>
    <g id="Symbols" stroke="none" stroke-width="1" fill="none" fill-rule="evenodd">
        <g id="1.atom/icon/Exit" transform="translate(-4.000000, -4.000000)" fill="#FFFFFF">
            <path d="M19.3137085,11.3137085 L13.3137085,11.3137085 L13.3137085,5.3137085 C13.3137085,4.76142375 12.8659932,4.3137085 12.3137085,4.3137085 C11.7614237,4.3137085 11.3137085,4.76142375 11.3137085,5.3137085 L11.3137085,11.3137085 L5.3137085,11.3137085 C4.76142375,11.3137085 4.3137085,11.7614237 4.3137085,12.3137085 C4.3137085,12.8659932 4.76142375,13.3137085 5.3137085,13.3137085 L11.3137085,13.3137085 L11.3137085,19.3137085 C11.3137085,19.8659932 11.7614237,20.3137085 12.3137085,20.3137085 C12.8659932,20.3137085 13.3137085,19.8659932 13.3137085,19.3137085 L13.3137085,13.3137085 L19.3137085,13.3137085 C19.8659932,13.3137085 20.3137085,12.8659932 20.3137085,12.3137085 C20.3137085,11.7614237 19.8659932,11.3137085 19.3137085,11.3137085 Z" id="Path"></path>
        </g>
    </g>
</svg>