<?xml version="1.0" encoding="UTF-8"?>
<svg width="14px" height="20px" viewBox="0 0 14 20" version="1.1" xmlns="http://www.w3.org/2000/svg" xmlns:xlink="http://www.w3.org/1999/xlink">
    <!-- Generator: Sketch 55.1 (78136) - https://sketchapp.com -->
    <title>Shape</title>
    <desc>Created with Sketch.</desc>
    <g id="Mobile" stroke="none" stroke-width="1" fill="none" fill-rule="evenodd">
        <g id="Landing_Purdy-Copy-3" transform="translate(-34.000000, -3039.000000)" fill="#FFFFFF" fill-rule="nonzero">
            <path d="M45.4545971,3040.65568 C43.8246756,3039.26311 41.6769922,3038.70868 39.6091688,3039.14668 C36.8287374,3039.73011 34.6620444,3041.99887 34.1225168,3044.89178 C33.7324714,3047.03911 34.2842568,3049.25528 35.6276271,3050.93686 C36.2433969,3051.6587 36.5963524,3052.58177 36.6252002,3053.54579 L36.6252002,3056.2729 C36.6252002,3057.77903 37.8005388,3059 39.2503925,3059 L42.750649,3059 C44.2005027,3059 45.3758413,3057.77903 45.3758413,3056.2729 L45.3758413,3053.71851 C45.4052103,3052.65418 45.781619,3051.63176 46.4434195,3050.81869 C48.8567953,3047.71737 48.4156805,3043.17553 45.4545971,3040.6375 L45.4545971,3040.65568 Z M43.6257131,3056.2729 C43.6257131,3056.77494 43.2339335,3057.18193 42.750649,3057.18193 L39.2503925,3057.18193 C38.767108,3057.18193 38.3753284,3056.77494 38.3753284,3056.2729 L38.3753284,3055.36386 L43.6257131,3055.36386 L43.6257131,3056.2729 Z M45.0870701,3049.69148 C44.2071982,3050.7756 43.6938487,3052.12955 43.6257131,3053.54579 L41.8755849,3053.54579 L41.8755849,3050.81869 C41.8755849,3050.31664 41.4838053,3049.90965 41.0005207,3049.90965 C40.5172362,3049.90965 40.1254566,3050.31664 40.1254566,3050.81869 L40.1254566,3053.54579 L38.3753284,3053.54579 C38.35224,3052.15324 37.856368,3050.81392 36.9752258,3049.76421 C35.7926502,3048.2923 35.4408434,3046.28347 36.0486093,3044.4732 C36.6563752,3042.66293 38.1344551,3041.31708 39.9416932,3040.92839 C41.4879462,3040.59766 43.0953822,3041.00726 44.3188058,3042.04373 C45.5422293,3043.08021 46.2517671,3044.63354 46.2509807,3046.27351 C46.2573826,3047.51877 45.8458295,3048.72742 45.0870701,3049.69148 Z" id="Shape"></path>
        </g>
    </g>
</svg>