<?xml version="1.0" encoding="UTF-8"?>
<svg width="22px" height="22px" viewBox="0 0 22 22" version="1.1" xmlns="http://www.w3.org/2000/svg" xmlns:xlink="http://www.w3.org/1999/xlink">
    <!-- Generator: Sketch 55.1 (78136) - https://sketchapp.com -->
    <title>Shape Copy</title>
    <desc>Created with Sketch.</desc>
    <g id="Desktop" stroke="none" stroke-width="1" fill="none" fill-rule="evenodd">
        <g id="Desktop-HD-Copy" transform="translate(-111.000000, -4338.000000)" fill="#293147" fill-rule="nonzero">
            <path d="M121.999739,4338.00703 C119.103767,4337.90167 116.290644,4338.98485 114.213415,4341.00511 C112.136186,4343.02537 110.975517,4345.80701 111.000847,4348.70428 C110.962841,4351.69257 112.205276,4354.55437 114.414563,4356.56735 L114.466288,4358.25732 C114.496763,4359.22854 115.29307,4360 116.264937,4360 C116.514993,4359.99968 116.762299,4359.94783 116.991424,4359.8477 L118.91213,4359.00125 C119.919336,4359.26936 120.95742,4359.40394 121.999709,4359.40153 C124.895787,4359.50694 127.709038,4358.4238 129.786435,4356.40356 C131.863832,4354.38332 133.024711,4351.60166 132.999601,4348.70428 C133.024708,4345.8069 131.863832,4343.02525 129.786442,4341.00501 C127.709052,4338.98477 124.895811,4337.90164 121.999739,4338.00703 Z M121.999739,4357.40208 C121.109779,4357.40465 120.223567,4357.28675 119.365244,4357.05159 C118.967768,4356.94439 118.545539,4356.97679 118.169075,4357.14337 L116.455378,4357.89902 L116.410462,4356.40627 C116.39038,4355.91776 116.173403,4355.45818 115.808953,4355.1322 C113.989436,4353.49479 112.965711,4351.1516 113.000646,4348.70428 C112.987707,4346.341 113.941662,4344.07517 115.641135,4342.43259 C117.340608,4340.79002 119.637844,4339.91352 121.999739,4340.00648 C125.178218,4339.89846 128.162604,4341.53222 129.783855,4344.26779 C131.405105,4347.00335 131.405105,4350.40521 129.783855,4353.14078 C128.162604,4355.87635 125.178218,4357.51011 121.999739,4357.40208 L121.999739,4357.40208 Z M125.733743,4345.5899 L123.421476,4348.34403 L120.075133,4346.28795 C119.652966,4346.02815 119.104058,4346.11756 118.786193,4346.4979 L115.73475,4350.13357 C115.503884,4350.40688 115.43676,4350.78274 115.558752,4351.11904 C115.680745,4351.45535 115.973243,4351.70079 116.325667,4351.76259 C116.678091,4351.82439 117.036671,4351.69311 117.265846,4351.41838 L119.763594,4348.44361 L123.109937,4350.49871 C123.531877,4350.75868 124.080695,4350.66971 124.398867,4350.28977 L127.264799,4346.87471 C127.497058,4346.60157 127.565167,4346.22495 127.44328,4345.88779 C127.321393,4345.55062 127.028191,4345.30457 126.674937,4345.24302 C126.321684,4345.18147 125.962521,4345.31384 125.733743,4345.5899 L125.733743,4345.5899 Z" id="Shape-Copy"></path>
        </g>
    </g>
</svg>