<?xml version="1.0" encoding="UTF-8"?>
<svg width="26px" height="27px" viewBox="0 0 26 27" version="1.1" xmlns="http://www.w3.org/2000/svg" xmlns:xlink="http://www.w3.org/1999/xlink">
    <!-- Generator: Sketch 55.1 (78136) - https://sketchapp.com -->
    <title>1487030576_Instagram</title>
    <desc>Created with Sketch.</desc>
    <defs>
        <radialGradient cx="14.9305469%" cy="100.347188%" fx="14.9305469%" fy="100.347188%" r="128.348839%" gradientTransform="translate(0.149305,1.003472),scale(0.995528,1.000000),translate(-0.149305,-1.003472)" id="radialGradient-1">
            <stop stop-color="#FFB140" offset="0%"></stop>
            <stop stop-color="#FF5445" offset="25.59%"></stop>
            <stop stop-color="#FC2B82" offset="59.9%"></stop>
            <stop stop-color="#8E40B7" offset="100%"></stop>
        </radialGradient>
    </defs>
    <g id="Symbols" stroke="none" stroke-width="1" fill="none" fill-rule="evenodd">
        <g id="footer-desktop-toyota" transform="translate(-820.000000, -76.000000)">
            <g id="Group-2" transform="translate(641.000000, 74.000000)">
                <g id="1487030576_Instagram" transform="translate(179.050633, 2.583333)">
                    <g id="Social_Icons">
                        <g id="_x37__stroke">
                            <g id="Instagram_1_">
                                <rect id="Rectangle-path" x="0" y="0" width="25.9493671" height="25.8333333"></rect>
                                <path d="M21.4574911,6.02179036 C21.4574911,6.87792318 20.7603046,7.57179036 19.9005291,7.57179036 C19.0407536,7.57179036 18.343567,6.87792318 18.343567,6.02179036 C18.343567,5.16565755 19.0407536,4.47179036 19.9005291,4.47179036 C20.7605073,4.47179036 21.4574911,5.16565755 21.4574911,6.02179036 Z M12.9746835,17.2221549 C10.5861254,17.2221549 8.64985661,15.2945443 8.64985661,12.9166667 C8.64985661,10.5387891 10.5861254,8.61117839 12.9746835,8.61117839 C15.3632417,8.61117839 17.2995105,10.5387891 17.2995105,12.9166667 C17.2995105,15.2945443 15.3632417,17.2221549 12.9746835,17.2221549 Z M12.9746835,6.28375651 C9.29494165,6.28375651 6.31198081,9.25337891 6.31198081,12.9166667 C6.31198081,16.5799544 9.29494165,19.5495768 12.9746835,19.5495768 C16.6544254,19.5495768 19.6373863,16.5799544 19.6373863,12.9166667 C19.6373863,9.25337891 16.6544254,6.28375651 12.9746835,6.28375651 Z M12.9746835,2.32742187 C16.4391268,2.32742187 16.8494511,2.34054036 18.2174693,2.40270182 C19.482501,2.46022135 20.169551,2.67052083 20.6267059,2.84751953 C21.2322587,3.08183594 21.6644778,3.36176432 22.1185918,3.81384766 C22.5727057,4.26572917 22.8538914,4.69601562 23.0892603,5.2990625 C23.2668513,5.75417318 23.4782981,6.43815104 23.5360759,7.69752604 C23.5985166,9.05962891 23.611694,9.46811849 23.611694,12.9170703 C23.611694,16.3660221 23.5985166,16.7745117 23.5360759,18.1364128 C23.4782981,19.3957878 23.267054,20.0797656 23.0892603,20.5348763 C22.8538914,21.1377214 22.5727057,21.5680078 22.1185918,22.0200911 C21.6646806,22.4721745 21.2324614,22.7521029 20.6267059,22.9864193 C20.169551,23.1632161 19.482501,23.3737174 18.2174693,23.431237 C16.8494511,23.4933984 16.4391268,23.5065169 12.9746835,23.5065169 C9.51003758,23.5065169 9.09971321,23.4933984 7.73169502,23.431237 C6.46666337,23.3737174 5.77961333,23.163418 5.32245847,22.9864193 C4.71690566,22.7521029 4.28468651,22.4721745 3.83057259,22.0200911 C3.37666139,21.5682096 3.09527294,21.1379232 2.85990407,20.5348763 C2.68231309,20.0797656 2.4708663,19.3957878 2.41308841,18.1364128 C2.35064775,16.7743099 2.33747033,16.3658203 2.33747033,12.9170703 C2.33747033,9.46811849 2.35064775,9.05962891 2.41308841,7.69752604 C2.4708663,6.43815104 2.68211036,5.75417318 2.85990407,5.2990625 C3.09527294,4.69621745 3.37645866,4.26593099 3.83057259,3.81384766 C4.28448378,3.36176432 4.71670293,3.08183594 5.32245847,2.84751953 C5.77961333,2.67072266 6.46666337,2.46022135 7.73169502,2.40270182 C9.09991594,2.34054036 9.51024031,2.32742187 12.9746835,2.32742187 Z M12.9746835,0 C9.45104331,0 9.00909316,0.0149348958 7.62526206,0.0777018229 C6.24426919,0.14046875 5.30096915,0.358841146 4.47586036,0.678125 C3.62257219,1.00810547 2.89903085,1.44989583 2.17771954,2.16798177 C1.45640823,2.88606771 1.0126335,3.6063737 0.681170886,4.45584635 C0.360452927,5.27746745 0.141099684,6.21634766 0.0780508307,7.59116536 C0.0150019778,8.96880859 0,9.40878255 0,12.9166667 C0,16.4245508 0.0150019778,16.8645247 0.0780508307,18.242168 C0.141099684,19.6169857 0.360452927,20.5558659 0.681170886,21.377487 C1.0126335,22.2269596 1.45640823,22.9472656 2.17771954,23.6653516 C2.89903085,24.3834375 3.62257219,24.825026 4.47586036,25.1552083 C5.30117188,25.4744922 6.24426919,25.6928646 7.62526206,25.7556315 C9.00909316,25.8183984 9.45104331,25.8333333 12.9746835,25.8333333 C16.4983238,25.8333333 16.9402739,25.8183984 18.324105,25.7556315 C19.7050979,25.6928646 20.6481952,25.4744922 21.4735067,25.1552083 C22.3267949,24.825026 23.0503362,24.3834375 23.7716475,23.6653516 C24.4929589,22.9472656 24.9365309,22.2269596 25.2681962,21.377487 C25.5889142,20.5558659 25.8082674,19.6169857 25.8713163,18.242168 C25.9343651,16.8645247 25.9493671,16.4245508 25.9493671,12.9166667 C25.9493671,9.40878255 25.9343651,8.96880859 25.8713163,7.59116536 C25.8082674,6.21634766 25.5889142,5.27746745 25.2681962,4.45584635 C24.9365309,3.6063737 24.4929589,2.88606771 23.7716475,2.16798177 C23.0503362,1.44989583 22.3267949,1.00830729 21.4735067,0.678125 C20.6481952,0.358841146 19.7050979,0.14046875 18.324105,0.0777018229 C16.9402739,0.0149348958 16.4983238,0 12.9746835,0 Z" id="Instagram" fill="url(#radialGradient-1)"></path>
                            </g>
                        </g>
                    </g>
                </g>
            </g>
        </g>
    </g>
</svg>