<?xml version="1.0" encoding="UTF-8"?>
<svg width="5px" height="8px" viewBox="0 0 5 8" version="1.1" xmlns="http://www.w3.org/2000/svg" xmlns:xlink="http://www.w3.org/1999/xlink">
    <!-- Generator: Sketch 55.1 (78136) - https://sketchapp.com -->
    <title>Path</title>
    <desc>Created with Sketch.</desc>
    <g id="Symbols" stroke="none" stroke-width="1" fill="none" fill-rule="evenodd">
        <g id="1.Atomo/CTA/Ver-mas" transform="translate(-75.000000, -10.000000)" fill="#FFFFFF" fill-rule="nonzero">
            <path d="M79.7632322,13.4605213 L76.3693811,10.225675 C76.2190858,10.0812417 76.0144975,10 75.8010711,10 C75.5876447,10 75.3830564,10.0812417 75.2327611,10.225675 C74.922413,10.5232484 74.922413,11.0038406 75.2327611,11.301414 L78.0663066,14.0022055 L75.2327611,16.702997 C74.922413,17.0005704 74.922413,17.4811626 75.2327611,17.778736 C75.3838186,17.9215472 75.5883127,18.0011597 75.8010711,18 C76.0138295,18.0011597 76.2183236,17.9215472 76.3693811,17.778736 L79.7632322,14.5438897 C79.914765,14.4006359 80,14.2056327 80,14.0022055 C80,13.7987783 79.914765,13.6037751 79.7632322,13.4605213 Z" id="Path"></path>
        </g>
    </g>
</svg>