<?xml version="1.0" encoding="UTF-8"?>
<svg width="31px" height="31px" viewBox="0 0 31 31" version="1.1" xmlns="http://www.w3.org/2000/svg" xmlns:xlink="http://www.w3.org/1999/xlink">
    <!-- Generator: Sketch 55.1 (78136) - https://sketchapp.com -->
    <title>Shape</title>
    <desc>Created with Sketch.</desc>
    <g id="Symbols" stroke="none" stroke-width="1" fill="none" fill-rule="evenodd">
        <g id="1.Atomo/Icon/Servicios/Key" transform="translate(-3.000000, -1.000000)" fill="#ED1C23">
            <path d="M32,5.115 L33.065,4.065 C33.6531833,3.47681674 33.6531833,2.52318326 33.065,1.935 C32.4768167,1.34681674 31.5231833,1.34681674 30.935,1.935 L28.835,4.05 L28.835,4.05 L24.59,8.295 L24.59,8.295 L15.125,17.745 C11.9122017,15.625328 7.61637889,16.2818075 5.1832798,19.2642748 C2.7501807,22.2467421 2.96975462,26.5868857 5.69143447,29.3085655 C8.41311432,32.0302454 12.7532579,32.2498193 15.7357252,29.8167202 C18.7181925,27.3836211 19.374672,23.0877983 17.255,19.875 L25.64,11.475 L28.82,14.67 C29.2004878,15.0478084 29.7536315,15.1939299 30.2710671,15.0533219 C30.7885027,14.912714 31.1916194,14.5067382 31.3285671,13.9883219 C31.4655148,13.4699055 31.3154879,12.9178084 30.935,12.54 L27.755,9.36 L29.885,7.245 L30.935,8.295 C31.3128084,8.67548787 31.8649055,8.82551479 32.3833219,8.68856708 C32.9017382,8.55161937 33.3077139,8.14850264 33.4483219,7.63106707 C33.5889299,7.11363149 33.4428084,6.56048785 33.065,6.18 L32,5.115 Z M11,28.5 C8.51471863,28.5 6.5,26.4852814 6.5,24 C6.5,21.5147186 8.51471863,19.5 11,19.5 C13.4852814,19.5 15.5,21.5147186 15.5,24 C15.5,26.4852814 13.4852814,28.5 11,28.5 Z" id="Shape"></path>
        </g>
    </g>
</svg>