<?xml version="1.0" encoding="UTF-8"?>
<svg width="29px" height="29px" viewBox="0 0 29 29" version="1.1" xmlns="http://www.w3.org/2000/svg" xmlns:xlink="http://www.w3.org/1999/xlink">
    <!-- Generator: Sketch 55.1 (78136) - https://sketchapp.com -->
    <title>Shape</title>
    <desc>Created with Sketch.</desc>
    <g id="Symbols" stroke="none" stroke-width="1" fill="none" fill-rule="evenodd">
        <g id="1.Atomo/Icon/Servicios/Money" transform="translate(-4.000000, -2.000000)" fill="#ED1C23">
            <path d="M14.875,14.4573413 L18.5,14.4573413 C19.3008129,14.4573413 19.95,13.8133064 19.95,13.0188492 C19.95,12.224392 19.3008129,11.5803571 18.5,11.5803571 L17.05,11.5803571 L17.05,10.8611111 C17.05,10.0666539 16.4008129,9.42261905 15.6,9.42261905 C14.7991871,9.42261905 14.15,10.0666539 14.15,10.8611111 L14.15,11.6522817 C12.3248902,12.01994 11.0775452,13.6997842 11.2647096,15.5380056 C11.4518739,17.376227 13.012645,18.7746743 14.875,18.7728175 L16.325,18.7728175 C16.7254064,18.7728175 17.05,19.0948349 17.05,19.4920635 C17.05,19.8892921 16.7254064,20.2113095 16.325,20.2113095 L12.7,20.2113095 C11.8991871,20.2113095 11.25,20.8553444 11.25,21.6498016 C11.25,22.4442588 11.8991871,23.0882937 12.7,23.0882937 L14.15,23.0882937 L14.15,23.8075397 C14.15,24.6019969 14.7991871,25.2460317 15.6,25.2460317 C16.4008129,25.2460317 17.05,24.6019969 17.05,23.8075397 L17.05,23.016369 C18.8751098,22.6487108 20.1224548,20.9688666 19.9352904,19.1306452 C19.7481261,17.2924238 18.187355,15.8939765 16.325,15.8958333 L14.875,15.8958333 C14.4745936,15.8958333 14.15,15.5738159 14.15,15.1765873 C14.15,14.7793587 14.4745936,14.4573413 14.875,14.4573413 Z M31.55,16.6150794 L27.2,16.6150794 L27.2,3.66865079 C27.2020648,3.15268562 26.9254196,2.67514325 26.475,2.4171627 C26.0263684,2.16020084 25.4736316,2.16020084 25.025,2.4171627 L20.675,4.89136905 L16.325,2.4171627 C15.8763684,2.16020084 15.3236316,2.16020084 14.875,2.4171627 L10.525,4.89136905 L6.175,2.4171627 C5.72636844,2.16020084 5.17363156,2.16020084 4.725,2.4171627 C4.27458042,2.67514325 3.99793519,3.15268562 3.99998852,3.66865079 L3.99998852,26.6845238 C3.99998852,29.0678955 5.94756134,31 8.35,31 L28.65,31 C31.0524387,31 33,29.0678955 33,26.6845238 L33,18.0535714 C33,17.2591142 32.3508129,16.6150794 31.55,16.6150794 Z M8.35,28.1230159 C7.54918711,28.1230159 6.9,27.478981 6.9,26.6845238 L6.9,6.15724206 L9.8,7.79712302 C10.2542207,8.03248365 10.7957793,8.03248365 11.25,7.79712302 L15.6,5.32291667 L19.95,7.79712302 C20.4042207,8.03248365 20.9457793,8.03248365 21.4,7.79712302 L24.3,6.15724206 L24.3,26.6845238 C24.3039216,27.1752557 24.3921873,27.6617289 24.561,28.1230159 L8.35,28.1230159 Z M30.1,26.6845238 C30.1,27.478981 29.4508129,28.1230159 28.65,28.1230159 C27.8491871,28.1230159 27.2,27.478981 27.2,26.6845238 L27.2,19.4920635 L30.1,19.4920635 L30.1,26.6845238 Z" id="Shape"></path>
        </g>
    </g>
</svg>