<?xml version="1.0" encoding="UTF-8"?>
<svg width="26px" height="26px" viewBox="0 0 26 26" version="1.1" xmlns="http://www.w3.org/2000/svg" xmlns:xlink="http://www.w3.org/1999/xlink">
    <!-- Generator: Sketch 55.1 (78136) - https://sketchapp.com -->
    <title>Shape</title>
    <desc>Created with Sketch.</desc>
    <g id="Symbols" stroke="none" stroke-width="1" fill="none" fill-rule="evenodd">
        <g id="1.Atomo/Icon/Servicios/Sale" transform="translate(-5.000000, -3.000000)" fill="#ED1C23">
            <path d="M29.856,14.323 L18.923,3.377 C18.6776655,3.13365753 18.3455439,2.99800221 18,2.99997824 L6.3,2.99997824 C5.58202983,2.99997824 4.99997824,3.58202983 4.99997824,4.3 L4.99997824,16 C4.99800221,16.3455439 5.13365753,16.6776655 5.377,16.923 L16.323,27.856 C17.8456512,29.3767576 20.3123488,29.3767576 21.835,27.856 L29.856,19.9 C31.3767576,18.3773488 31.3767576,15.9106512 29.856,14.388 L29.856,14.323 Z M28.023,17.989 L28.023,17.989 L19.989,26.01 C19.4819513,26.5140407 18.6630487,26.5140407 18.156,26.01 L7.6,15.467 L7.6,5.6 L17.467,5.6 L28.023,16.156 C28.2663425,16.4013345 28.4019978,16.7334561 28.4000218,17.079 C28.398564,17.4200418 28.2631674,17.7468612 28.023,17.989 Z" id="Shape"></path>
        </g>
    </g>
</svg>